<?xml version="1.0" standalone="no"?>
<!DOCTYPE svg PUBLIC "-//W3C//DTD SVG 1.1//EN" "http://www.w3.org/Graphics/SVG/1.1/DTD/svg11.dtd" >
<svg xmlns="http://www.w3.org/2000/svg">
<metadata></metadata>
<defs>
<font id="sosaregular" horiz-adv-x="2048" >
<font-face units-per-em="2048" ascent="1540" descent="-508" />
<missing-glyph horiz-adv-x="438" />
<glyph horiz-adv-x="0" />
<glyph unicode="&#xd;" horiz-adv-x="0" />
<glyph horiz-adv-x="0" />
<glyph horiz-adv-x="0" />
<glyph unicode=" "  horiz-adv-x="438" />
<glyph unicode="&#x09;" horiz-adv-x="438" />
<glyph unicode="&#xa0;" horiz-adv-x="438" />
<glyph unicode="!" d="M854 -317q0 71 50 121q49 49 120 49t120 -49q50 -50 50 -121t-50 -121q-50 -51 -120 -51q-71 0 -120 51q-50 50 -50 121zM854 1047q0 71 50 121q49 51 120 51q70 0 120 -51q50 -50 50 -121q0 -15 -2 -25l-82 -999h-172l-82 999q-2 10 -2 25z" />
<glyph unicode="&#x22;" horiz-adv-x="561" />
<glyph unicode="#" horiz-adv-x="1409" />
<glyph unicode="$" d="M512 23h342q0 -48 22.5 -86t61.5 -62v326q-184 32 -305 174t-121 332q0 87 28 168q14 42 33.5 75t40.5 62q55 75 138 127.5t186 70.5v93h172v-93q183 -32 304 -173q122 -142 122 -330h-342q0 96 -84 147v-326q182 -31 304 -174t122 -331q0 -85 -29 -169q-14 -42 -33 -75 t-40 -62q-55 -75 -138 -127.5t-186 -70.5v-92h-172v92q-185 32 -305 173q-121 142 -121 331zM854 707q0 -48 22.5 -87t61.5 -63v297q-84 -51 -84 -147zM1110 -125q39 24 61.5 62t22.5 86t-22.5 86.5t-61.5 62.5v-297z" />
<glyph unicode="%" horiz-adv-x="1230" />
<glyph unicode="&#x26;" d="M159 309q0 153 89 259q90 106 262 130q-51 108 -51 203q0 105 63 197q63 91 159 147q98 56 201 56q117 0 194 -64q78 -65 78 -154q0 -66 -38 -124q-38 -57 -79 -57q-20 0 -20 21q0 8 12 35q17 41 17 88q0 67 -54 109q-56 42 -132 42q-126 0 -232 -102 q-108 -104 -108 -235q0 -60 15 -100q17 -43 29 -53q12 -12 36 -12q154 0 154 -90q0 -23 -16 -42q-16 -20 -47 -20q-35 0 -89 45q-58 50 -112 50q-69 0 -133 -70q-63 -71 -63 -166q0 -186 185 -353q185 -166 462 -166q263 0 448 130q187 131 187 311q0 121 -92 210 q-90 89 -249 89q-126 0 -225 -69t-99 -174q0 -63 36 -102q36 -41 74 -41q22 0 33.5 12t9.5 35l-1 14q-1 7 -1 12v8q0 49 27 81t68 32q40 0 68 -28q29 -26 29 -76q0 -70 -48 -118q-50 -47 -125 -47q-89 0 -156 65q-65 62 -65 158q0 138 115 250q114 113 418 113q137 0 235 19 t160 56q123 75 123 225q0 91 -55 147q-54 58 -138 58q-43 0 -62 -12q-21 -12 -21 -36q0 -16 20 -45q26 -38 26 -72q0 -40 -32 -72t-79 -32q-57 0 -85 36q-29 37 -29 84q0 75 74 137q75 60 190 60q119 0 197 -87q79 -85 79 -208q0 -116 -68 -211t-171 -134q-102 -38 -290 -46 q179 -126 179 -324q0 -148 -110 -288q-111 -140 -265 -205q-155 -67 -381 -67q-183 0 -295 39q-57 20 -111 49t-105 67q-103 77 -161 186q-59 112 -59 237z" />
<glyph unicode="'" horiz-adv-x="141" />
<glyph unicode="(" horiz-adv-x="391" />
<glyph unicode=")" horiz-adv-x="587" />
<glyph unicode="*" horiz-adv-x="532" />
<glyph unicode="+" horiz-adv-x="970" />
<glyph unicode="," horiz-adv-x="327" />
<glyph unicode="-" horiz-adv-x="903" />
<glyph unicode="." horiz-adv-x="337" />
<glyph unicode="/" d="M598 -229v1484q0 70 50 120t120 50q32 7 96 10t160 3q194 0 256 -13q70 0 120 -50t50 -120v-1484q0 -69 -46 -118t-114 -52q-1 0 -4.5 -1t-5.5 -1h-512q-2 0 -5.5 1t-4.5 1q-68 3 -114 52t-46 118zM713 518h622v672h-622v-672zM895 213q0 -17 13 -30t30 -13h172 q17 0 29 13t12 30v170q0 19 -12 31t-29 12h-172q-18 0 -30.5 -12.5t-12.5 -30.5v-170z" />
<glyph unicode="0" d="M170 -45v426q0 140 43.5 269.5t121.5 235.5q57 78 132.5 142.5t164 110.5t188 71t204.5 25q140 -1 269.5 -44t235.5 -121q78 -57 142.5 -132.5t110 -164t71 -188t25.5 -204.5v-426h-86v426q0 210 -103 385q-103 177 -280 280q-175 103 -385 103t-386 -103 q-176 -104 -279 -280q-103 -175 -103 -385v-426h-86zM342 -215v682h127q53 0 91 -38t38 -91v-426q0 -52 -38 -90q-37 -37 -91 -37h-127zM1450 -88v426q0 54 37 91q38 38 92 38h127v-682h-127q-55 0 -92 37t-37 90z" />
<glyph unicode="1" d="M170 -45v682q0 71 51 121q51 51 121 51h340l86 170l24 44q8 14 25 28t37 14h340q15 0 27.5 -6t23.5 -20t17.5 -26t17.5 -34l86 -170h340q70 0 121 -51q51 -50 51 -121v-682q0 -71 -51 -120q-50 -50 -121 -50h-1364q-70 0 -122 50q-50 50 -50 120zM639 338 q0 -159 112 -271t273 -112q159 0 271 112t112 271q0 160 -112 272q-111 113 -271 113t-273 -113q-112 -112 -112 -272zM811 338q0 88 62 152q61 63 151 63q89 0 151 -63q62 -64 62 -152q0 -87 -62 -151q-62 -62 -151 -62t-151 62q-62 64 -62 151zM1536 552.5q0 -16.5 6 -32 t19 -28.5t28.5 -19t32 -6t32 6.5t27.5 18.5q25 26 25 60.5t-25 59.5t-59.5 25t-60.5 -25q-12 -12 -18.5 -27.5t-6.5 -32z" />
<glyph unicode="2" d="M86 723v256q0 35 24.5 60.5t59.5 25.5l172 -86h596q71 0 121 -50q51 -50 51 -120h-598q-47 0 -90 -12.5t-81.5 -35t-70 -54t-53.5 -70.5h-47q-35 0 -59.5 25.5t-24.5 60.5zM342 125v342q0 70 50 120t120 50h854q70 0 120 -50t50 -120v-342q0 -71 -50 -121 q-49 -49 -120 -49h-854q-71 0 -120 49q-50 50 -50 121zM512 380.5q0 -16.5 6 -32t19 -27.5t28.5 -18t32 -6t32 6t27.5 18q25 25 24.5 59.5t-24.5 60.5q-25 26 -59.5 26t-60.5 -26q-12 -12 -18.5 -28t-6.5 -32.5zM1661 637h45l172 172q35 0 59.5 -25.5t24.5 -60.5v-512 q0 -35 -24.5 -60.5t-59.5 -25.5l-172 172v170q0 93 -45 170z" />
<glyph unicode="3" d="M170 -45v682q0 71 51 121q51 51 121 51h1364q70 0 121 -51q51 -50 51 -121v-682h-172v342h-1364v-342h-172zM512 125h1024v-512h-1024v512zM512 979v170h1024v-170h-1024zM1536 552.5q0 -16.5 6 -32t19 -28.5t28.5 -19t32 -6t32 6.5t27.5 18.5q25 26 25 60.5t-25 59.5 t-59.5 25t-60.5 -25q-12 -12 -18.5 -27.5t-6.5 -32z" />
<glyph unicode="4" d="M176 487v49q0 16 1.5 46.5t3.5 75.5t5.5 88t7.5 85t10.5 88t15.5 97t20 95t22 81q8 28 22.5 51t37.5 41q46 37 104 37h172v-428l-172 -84v-684l172 -84v-428h-172q-62 0 -108 39q-23 20 -36.5 44.5t-21.5 53.5q-41 165 -62.5 348.5t-21.5 388.5zM768 -387v1708h938 q70 0 121 -51q51 -50 51 -121v-1364q0 -72 -51 -121q-51 -51 -121 -51h-938zM1004 -109q-1 -28 14 -48.5t37.5 -30t48 -6t44.5 24.5q21 18 24.5 43.5t-6 48t-30.5 38t-49 14.5q-35 -2 -58 -25.5t-25 -58.5zM1004 147q-1 -28 14 -48.5t37.5 -30.5t48 -6.5t44.5 24.5 q21 19 24.5 44.5t-6 48t-30.5 38t-49 14.5q-35 -2 -58 -25.5t-25 -58.5zM1004 403q-1 -28 14 -48.5t37.5 -30.5t48 -6.5t44.5 24.5q21 19 24.5 44.5t-6 48t-30.5 38t-49 14.5q-35 -2 -58 -25.5t-25 -58.5zM1260 -109q-1 -28 14 -48.5t37.5 -30t48 -6t44.5 24.5 q21 18 24.5 43.5t-6 48t-30.5 38t-49 14.5q-35 -2 -58 -25.5t-25 -58.5zM1260 147q-1 -28 14 -48.5t37.5 -30.5t48 -6.5t44.5 24.5q21 19 24.5 44.5t-6 48t-30.5 38t-49 14.5q-35 -2 -58 -25.5t-25 -58.5zM1260 403q-1 -28 14 -48.5t37.5 -30.5t48 -6.5t44.5 24.5 q21 19 24.5 44.5t-6 48t-30.5 38t-49 14.5q-35 -2 -58 -25.5t-25 -58.5zM1516 -109q-1 -28 14 -48.5t37.5 -30t48 -6t44.5 24.5q21 18 24.5 43.5t-6 48t-30.5 38t-49 14.5q-35 -2 -58 -25.5t-25 -58.5zM1516 147q-1 -28 14 -48.5t37.5 -30.5t48 -6.5t44.5 24.5 q21 19 24.5 44.5t-6 48t-30.5 38t-49 14.5q-35 -2 -58 -25.5t-25 -58.5zM1516 403q-1 -28 14 -48.5t37.5 -30.5t48 -6.5t44.5 24.5q21 19 24.5 44.5t-6 48t-30.5 38t-49 14.5q-35 -2 -58 -25.5t-25 -58.5z" />
<glyph unicode="5" d="M515 -360v1654q0 35 11 65t37 56q51 51 122 51q2 0 4.5 -1t3.5 -1h668q1 0 3.5 1t4.5 1q71 0 122 -51q26 -26 37 -56t11 -65v-1654q0 -66 -47 -116q-23 -25 -51.5 -39.5t-61.5 -14.5h-704q-33 0 -61.5 14.5t-51.5 39.5q-47 50 -47 116zM601 -188h852v1310h-852v-1310z M926 -360q0 -19 7.5 -37t22.5 -33t33.5 -22t37.5 -7t37 7t33 22t22.5 33t7.5 37t-7.5 37.5t-22.5 33.5t-33 22.5t-37 7.5t-37.5 -7.5t-33.5 -22.5t-22.5 -33.5t-7.5 -37.5zM933 1294q0 -16 16 -16h156q16 0 16 16q0 19 -16 19h-156q-16 0 -16 -19z" />
<glyph unicode="6" d="M367 -303v1542q0 37 22.5 60.5t59.5 23.5h1150q37 0 59.5 -23.5t22.5 -60.5v-1542q0 -37 -22.5 -59.5t-59.5 -22.5h-1150q-37 0 -59.5 22.5t-22.5 59.5zM512 -215h1024v1364h-1024v-1364zM983 -315q0 -17 12 -29t29 -12t29 12t12 29q0 21 -13 31.5t-28 10.5t-28 -10.5 t-13 -31.5z" />
<glyph unicode="7" d="M86 -88l170 170v940q0 32 27 58q28 26 59 26h1364q31 0 59 -26q27 -26 27 -58v-940l170 -170q0 -36 -23.5 -61t-60.5 -25h-1708q-37 0 -60.5 24t-23.5 62zM342 82h1364v940h-1364v-940zM784 -80q0 -8 27 -8h426q27 0 27 8q0 2 -2 2l-54 55q-7 7 -32 7h-304q-26 0 -30 -7 l-56 -55z" />
<glyph unicode="8" d="M256 25v1142q0 28 19 47t47 19h1404q28 0 47 -19t19 -47v-1142q0 -28 -18.5 -47t-47.5 -19h-548l26 -203l43 -43v-6q-1 -4 -12.5 -6t-22.5 -3l-12 -1h-352q-45 0 -49 10v6l45 43l26 203h-548q-29 0 -47.5 19t-18.5 47zM342 272h1364v877h-1364v-877zM981 135 q0 -19 12 -31t31 -12t31 12t12 31t-12 31t-31 12t-31 -12t-12 -31z" />
<glyph unicode="9" d="M342 381v172h170v-172q0 -212 150 -362t362 -150t362 150t150 362v172h170v-172q0 -171 -79 -319q-77 -146 -215 -242t-302 -115v-94q112 -7 184 -30t72 -52v-86h-684v86q0 29 72 52t184 30v94q-165 19 -303 115q-136 94 -215 242q-78 148 -78 319zM682 381v768 q0 141 100 241q101 101 242 101q140 0 241 -101t101 -241v-768q0 -140 -101 -241q-101 -99 -241 -99q-142 0 -242 99q-100 100 -100 241z" />
<glyph unicode=":" d="M170 41v852q0 71 51 121q51 51 121 51h621l-340 338l30 31l369 -369h4l369 369l30 -31l-340 -338h621q70 0 121 -51q51 -50 51 -121v-852q0 -72 -51 -121q-51 -51 -121 -51h-1364q-70 0 -121 51q-51 49 -51 121zM342 82q0 -17 12 -29t29 -12h940q17 0 30 12t13 29v768 q0 18 -12.5 30.5t-30.5 12.5h-940q-17 0 -29 -12t-12 -31v-768zM342 -215h1364v-86h-1364v86zM1493 467q0 -55 37 -92t92 -37q53 0 90 37t37 92q0 54 -37 90q-37 37 -90 37q-55 0 -92 -37q-37 -36 -37 -90zM1493 809q0 -55 37 -92t92 -37q53 0 90 37t37 92q0 52 -38 90 q-37 37 -89 37q-55 0 -92 -37t-37 -90z" />
<glyph unicode=";" d="M170 -45v1024h481l369 369l31 -29l-340 -340h1167v-1024h-1708zM338 467q0 -10 10 -10h281q10 0 10 10q0 12 -10 12v-2l-279 2h-2q-10 0 -10 -12zM340 424q0 -3 4 -6.5t8 -3.5h277q10 0 10 10q0 12 -10 12h-277q-4 0 -8 -4t-4 -8zM340 510q0 -10 12 -10h277q10 0 10 10 t-10 10h-277q-12 0 -12 -10zM350 383q0 -12 10 -12v2l269 -2q10 0 10 12q0 10 -10 10h-269q-10 0 -10 -10zM350 553q0 -10 10 -10h269q10 0 10 10t-10 10h-269q-10 0 -10 -10zM365 340q0 -10 12 -10h252q10 0 10 10t-10 10h-252q-12 0 -12 -10zM365 596q0 -10 12 -10h252 q10 0 10 10t-10 10h-252q-12 0 -12 -10zM389 297q0 -10 10 -10h230q10 0 10 10t-10 10h-230q-10 0 -10 -10zM389 639q0 -12 10 -12v2l230 -2q10 0 10 12q0 10 -10 10h-230q-10 0 -10 -10zM422 254q0 -10 12 -10h195q10 0 10 10t-10 10h-195q-12 0 -12 -10zM422 680 q0 -3 4 -6.5t8 -3.5h195q10 0 10 10q0 12 -10 12h-195q-4 0 -8 -4t-4 -8zM471 211q0 -10 12 -10h146q10 0 10 10q0 12 -10 12v-2l-146 2q-12 0 -12 -12zM471 723q0 -10 12 -10h146q10 0 10 10q0 12 -10 12v-2l-146 2q-12 0 -12 -12zM559 168q0 -10 10 -10h60q10 0 10 10 q0 12 -10 12h-60q-10 0 -10 -12zM559 766q0 -10 10 -10h60q10 0 10 10t-10 10h-60q-10 0 -10 -10zM682 168q0 -3 4 -6.5t8 -3.5h60q10 0 10 10q0 12 -10 12h-60q-4 0 -8 -4t-4 -8zM682 211q0 -10 12 -10h146q10 0 10 10q0 12 -10 12v-2l-146 2q-4 0 -8 -3.5t-4 -8.5z M682 254q0 -10 12 -10h195q10 0 10 10t-10 10h-195q-12 0 -12 -10zM682 297q0 -10 12 -10h230q10 0 10 10t-10 10h-230q-12 0 -12 -10zM682 340q0 -10 12 -10h252q10 0 10 10t-10 10h-252q-12 0 -12 -10zM682 383q0 -5 4 -8.5t8 -3.5v2l267 -2h2q10 0 10 12q0 10 -10 10 h-269q-12 0 -12 -10zM682 424q0 -3 4 -6.5t8 -3.5h277q10 0 10 10q0 12 -10 12h-277q-4 0 -8 -4t-4 -8zM682 467q0 -10 12 -10h281q10 0 10 10q0 4 -3.5 8t-6.5 4l-2 -2l-279 2q-4 0 -8 -3.5t-4 -8.5zM682 510q0 -10 12 -10h277q10 0 10 10t-10 10h-277q-12 0 -12 -10z M682 553q0 -10 12 -10h269q10 0 10 10t-10 10h-269q-12 0 -12 -10zM682 596q0 -10 12 -10h252q10 0 10 10t-10 10h-252q-12 0 -12 -10zM682 639q0 -5 4 -8.5t8 -3.5v2l230 -2q10 0 10 12q0 10 -10 10h-230q-12 0 -12 -10zM682 680q0 -3 4 -6.5t8 -3.5h195q10 0 10 10 q0 12 -10 12h-195q-4 0 -8 -4t-4 -8zM682 723q0 -10 12 -10h146q10 0 10 10q0 12 -10 12v-2l-146 2q-4 0 -8 -3.5t-4 -8.5zM682 766q0 -10 12 -10h60q10 0 10 10t-10 10h-60q-12 0 -12 -10zM1110 510q0 -19 12 -31t29 -12q19 0 31 12t12 31q0 18 -12.5 30.5t-30.5 12.5 q-17 0 -29 -13t-12 -30zM1110 637q0 -17 12 -30t29 -13q18 0 30.5 12.5t12.5 30.5q0 19 -12 31t-31 12q-17 0 -29 -12t-12 -31zM1110 766q0 -19 12 -31t29 -12q19 0 31 12t12 31q0 18 -12.5 30.5t-30.5 12.5q-17 0 -29 -13t-12 -30zM1237 211q0 -19 12 -31t31 -12t31 12 t12 31t-12 31t-31 12t-31 -12t-12 -31zM1366 211q0 -19 12 -31t29 -12q21 -2 31.5 12t10.5 31t-10.5 31t-31.5 12q-17 0 -29 -12t-12 -31zM1535.5 211q-0.5 -35 25.5 -61q13 -13 28.5 -19t32 -6t32 6.5t27.5 18.5q12 13 18 29t6 32t-6 31.5t-18 28.5q-25 26 -59.5 26 t-60.5 -26q-25 -25 -25.5 -60zM1536 381h170v428h-170v-428z" />
<glyph unicode="&#x3c;" d="M170 -207q0 96 104 174q105 78 242 78q100 0 166 -51v1071l1024 170v-1237q0 -72 -107 -143q-106 -70 -241 -70q-106 0 -177 50t-71 128q0 88 87 162q86 73 210 88q8 0 24 1t23 1q98 0 168 -49v801l-854 -144v-995q0 -74 -108 -144q-109 -71 -240 -71q-106 0 -178 51 t-72 129z" />
<glyph unicode="=" d="M383 -88v-299h299v299h-299zM383 -387l86 86h129v127l84 86l-43 -86v-170h-170zM725 -45l86 86h127v127l86 86l-43 -86v-170h-170zM725 -45h299v299h-299v-299zM725 -88v-299h299v299h-299zM725 -387l86 86h127v127l86 86l-43 -86v-170h-170zM1067 -88v-299h299v299h-299 zM1067 -387l84 86h129v127l86 86l-43 -86v-170h-172zM1067 487l84 86h129v129l86 84l-43 -84v-172h-172zM1067 487h299v299h-299v-299zM1067 829l84 86h129v127l86 86l-43 -86v-170h-172zM1067 829h299v299h-299v-299zM1407 147h299v299h-299v-299zM1407 147l86 84h129v129 l84 86l-43 -86v-170h-170zM1407 487h299v299h-299v-299zM1407 487l86 86h129v129l84 84l-43 -84v-172h-170z" />
<glyph unicode="&#x3e;" d="M20 -12q0 7 1 13.5t2 14.5l63 512q54 -100 148 -166q95 -65 206 -65q139 0 248 85q110 86 146 218q-41 -116 -140 -189q-98 -73 -225 -73q-159 0 -271 112t-112 273q0 159 112 271t271 112q170 0 287 -127h536q117 127 287 127q159 0 271 -112t112 -271q0 -160 -113 -273 q-112 -112 -270 -112q-122 0 -222 71q-97 70 -138 185q37 -127 144 -208q108 -81 243 -81q111 0 206 66q96 67 150 168l63 -523q1 -8 2 -14.5t1 -13.5q0 -95 -69 -161q-68 -67 -169 -67q-42 0 -81 14t-73 38.5t-62.5 59.5t-49.5 77l-262 518h-476l-262 -518q-19 -37 -47 -70 t-68 -62q-78 -57 -151 -57h-2q-99 0 -167 67q-69 67 -69 161zM233 659h129l66 64l-66 63h-129v-127zM406 487h126v129l-63 66l-63 -66v-129zM406 829l63 -65l63 65v129h-126v-129zM512 723l63 -64h130v127h-130zM854 723q0 -21 20 -21h107q11 0 16.5 6.5t5.5 14t-5.5 14 t-16.5 6.5h-107q-20 0 -20 -20zM1045 722.5q0 -7.5 5.5 -14t16.5 -6.5h107q20 0 20 21q0 20 -20 20h-107q-11 0 -16.5 -6.5t-5.5 -14zM1366 723q0 -29 20.5 -50.5t49.5 -21.5q30 0 50.5 21t20.5 51t-20.5 51t-50.5 21q-29 0 -49.5 -21.5t-20.5 -50.5zM1507 582q0 -30 21 -51 t51 -21t51 21t21 51q0 29 -21 49t-51 20t-51 -20t-21 -49zM1507 864q0 -29 21 -49t51 -20t51 20t21 49q0 30 -21 51t-51 21t-51 -21t-21 -51zM1651 723q0 -30 20 -51t49 -21t50 21q22 22 22 50.5t-22 50.5t-50.5 22t-48.5 -21t-20 -51z" />
<glyph unicode="?" d="M426 893q0 123 47 232.5t128 190.5t190.5 128t232.5 47t232.5 -47t190.5 -128t128 -190.5t47 -232.5q0 -206 -127 -366q-126 -161 -321 -212q-26 -7 -45 -27t-19 -46v-117h-342v172q19 126 109 222q90 94 215 126v2q82 22 135 90q53 70 53 156q0 106 -75 181t-181 75 t-181 -75t-75 -181h-342zM682 -301q0 106 75 181t181 75t181 -75t75 -181t-75 -181t-181 -75t-181 75t-75 181z" />
<glyph unicode="@" d="M170 -430v1792h1708v-1792h-1708zM299 -25h170v158h-170v-158zM299 -143v-158h170v158h-170zM299 250h170v158h-170v-158zM299 526h170v158h-170v-158zM299 801h170v157h-170v-157zM299 1077h170v158h-170v-158zM598 -258q0 -17 12 -30t29 -13h768q18 0 30.5 12.5 t12.5 30.5v627q0 15 -12.5 27t-30.5 12h-768q-17 0 -29 -12t-12 -27v-627zM598 565q0 -15 12 -27t29 -12h768q18 0 30.5 12t12.5 27v627q0 18 -12.5 30.5t-30.5 12.5h-768q-17 0 -29 -13t-12 -30v-627zM1579 -25h170v158h-170v-158zM1579 -143v-158h170v158h-170zM1579 250 h170v158h-170v-158zM1579 526h170v158h-170v-158zM1579 801h170v157h-170v-157zM1579 1077h170v158h-170v-158z" />
<glyph unicode="A" d="M86 -301v1536h1876v-1536h-1876zM170 -215h1708v1364h-1708v-1364zM426 -45l469 469l299 -299l299 598l213 -426v-342h-1280zM426 766q0 70 50 120q52 50 122 50t120 -50t50 -120t-50 -122q-50 -50 -120 -50t-121 51t-51 121z" />
<glyph unicode="B" d="M111 373q0 165 57 298.5t174 235.5q106 92 253 144.5t320 52.5v-68q-234 -46 -354 -151q-121 -106 -121 -324q0 -124 39 -194q49 37 102 58t128 21q132 0 204 -90q70 -88 70 -188q0 -167 -117 -252q-118 -88 -272 -88q-226 0 -356 162q-127 160 -127 383zM1051 373 q0 169 67 301q70 139 178.5 234t259.5 147q76 26 154 37.5t160 11.5v-68q-241 -47 -357 -151q-61 -54 -90.5 -134.5t-29.5 -189.5q0 -135 41 -194q98 79 227 79q133 0 205 -90q71 -89 71 -188q0 -164 -118 -252t-271 -88q-229 0 -364 162q-133 157 -133 383z" />
<glyph unicode="C" d="M111 766q0 169 116 252q119 86 273 86q114 0 204 -39.5t158 -120.5q69 -81 102 -177t33 -206q0 -315 -245 -534q-101 -91 -253 -145q-150 -54 -321 -54v70q236 47 357 151q120 103 120 322q0 134 -41 196q-54 -41 -106 -60.5t-123 -19.5q-135 0 -205 91q-69 87 -69 188z M1065 766q0 166 117 252q119 86 272 86q227 0 354 -160q129 -164 129 -383q0 -329 -231 -534q-51 -46 -115 -83t-137.5 -62.5t-155 -39.5t-168.5 -14v70q237 46 357 151q121 106 121 322q0 126 -41 196q-101 -80 -228 -80q-134 0 -204 91q-70 88 -70 188z" />
<glyph unicode="D" d="M100 449v43l623 337v-151l-381 -211l381 -209v-152zM682 -131l524 1196h160l-524 -1196h-160zM1323 106v152l379 209l-379 211v151l621 -337v-43z" />
<glyph unicode="E" d="M236 297h296v-684h-296v684zM662 -387v1280h299v-1280h-299zM1087 -387v1708h299v-1708h-299zM1516 -387v1024h296v-1024h-296z" />
<glyph unicode="F" d="M150 467q1 140 44 269t121 235q58 79 133 143.5t163.5 111t187.5 71.5q95 24 197 24h8v-854l602 -604q-59 -59 -127.5 -105.5t-145 -78.5t-159.5 -49t-170 -17q-141 0 -270 43.5t-235 121.5q-78 58 -142.5 133.5t-110.5 164t-71 187.5t-25 204zM1044 510v852 q173 0 332 -68q160 -68 273 -181t181 -272t68 -331h-854zM1174 424h854q0 -87 -17 -170t-49 -159.5t-78.5 -145t-105.5 -127.5z" />
<glyph unicode="G" d="M170 -387v1708h172v-1536h1536v-172h-1708zM406 104v21h20v-21h-20zM406 446v21h20v-21h-20zM406 786v23h20v-23h-20zM406 1128v21h20v-21h-20zM426 227q0 32 27 49l395 396q17 26 49 26q31 0 47 -22l60 -60v21h20v-21h-20l170 -170v21h20v-21h-20l20 -22l582 582 q14 14 32 16.5t33.5 -4t26 -20.5t10.5 -33q0 -23 -18 -45l-623 -621q-18 -18 -43 -18q-29 0 -45 22l-143 143h-2v3l-107 104l-369 -369q-9 -9 -20 -12.5t-23 -3.5q-25 0 -42 17t-17 42zM492 104v21h20v-21h-20zM492 446v21h20v-21h-20zM492 786v23h20v-23h-20zM492 1128v21 h20v-21h-20zM575 104v21h23v-21h-23zM575 446v21h23v-21h-23zM575 786v23h23v-23h-23zM575 1128v21h23v-21h-23zM662 18v23h20v-23h-20zM662 -45h20v-21h-20v21zM662 104v21h20v-21h-20zM662 -131h20v-21h-20v21zM662 190v21h20v-21h-20zM662 274v23h20v-23h-20zM662 530v23 h20v-23h-20zM662 616v21h20v-21h-20zM662 702v21h20v-21h-20zM662 786v23h20v-23h-20zM662 872v21h20v-21h-20zM662 958v21h20v-21h-20zM662 1042v23h20v-23h-20zM662 1128v21h20v-21h-20zM662 1214v21h20v-21h-20zM748 104v21h20v-21h-20zM748 786v23h20v-23h-20zM748 1128 v21h20v-21h-20zM831 104v21h23v-21h-23zM831 446v21h23v-21h-23zM831 786v23h23v-23h-23zM831 1128v21h23v-21h-23zM918 104v21h20v-21h-20zM918 446v21h20v-21h-20zM918 786v23h20v-23h-20zM918 1128v21h20v-21h-20zM1004 18v23h20v-23h-20zM1004 -45h20v-21h-20v21z M1004 104v21h20v-21h-20zM1004 -131h20v-21h-20v21zM1004 190v21h20v-21h-20zM1004 274v23h20v-23h-20zM1004 360v21h20v-21h-20zM1004 702v21h20v-21h-20zM1004 786v23h20v-23h-20zM1004 872v21h20v-21h-20zM1004 958v21h20v-21h-20zM1004 1042v23h20v-23h-20zM1004 1128 v21h20v-21h-20zM1004 1214v21h20v-21h-20zM1087 104v21h23v-21h-23zM1087 786v23h23v-23h-23zM1087 1128v21h23v-21h-23zM1174 104v21h20v-21h-20zM1174 786v23h20v-23h-20zM1174 1128v21h20v-21h-20zM1260 104v21h20v-21h-20zM1260 786v23h20v-23h-20zM1260 1128v21h20v-21 h-20zM1343 18v23h23v-23h-23zM1343 -45h23v-21h-23v21zM1343 104v21h23v-21h-23zM1343 -131h23v-21h-23v21zM1343 190v21h23v-21h-23zM1343 274v23h23v-23h-23zM1343 360v21h23v-21h-23zM1343 616v21h23v-21h-23zM1343 702v21h23v-21h-23zM1343 786v23h23v-23h-23zM1343 872 v21h23v-21h-23zM1343 958v21h23v-21h-23zM1343 1042v23h23v-23h-23zM1343 1128v21h23v-21h-23zM1343 1214v21h23v-21h-23zM1430 104v21h20v-21h-20zM1430 446v21h20v-21h-20zM1430 786v23h20v-23h-20zM1430 1128v21h20v-21h-20zM1516 104v21h20v-21h-20zM1516 446v21h20v-21 h-20zM1516 786v23h20v-23h-20zM1516 1128v21h20v-21h-20zM1599 104v21h23v-21h-23zM1599 446v21h23v-21h-23zM1599 1128v21h23v-21h-23zM1686 18v23h20v-23h-20zM1686 -45h20v-21h-20v21zM1686 104v21h20v-21h-20zM1686 -131h20v-21h-20v21zM1686 190v21h20v-21h-20z M1686 274v23h20v-23h-20zM1686 360v21h20v-21h-20zM1686 446v21h20v-21h-20zM1686 530v23h20v-23h-20zM1686 616v21h20v-21h-20zM1686 702v21h20v-21h-20zM1686 958v21h20v-21h-20zM1686 1042v23h20v-23h-20zM1686 1128v21h20v-21h-20zM1686 1214v21h20v-21h-20zM1772 104 v21h20v-21h-20zM1772 446v21h20v-21h-20zM1772 786v23h20v-23h-20zM1772 1128v21h20v-21h-20z" />
<glyph unicode="H" d="M256 -471v1876h1536v-1876h-1536zM342 -45h1364v1366h-1364v-1366zM426 41l385 469l299 -299l297 598l215 -428v-340h-1196zM512 979q0 70 50 120t120 50q71 0 121 -50q51 -50 51 -120q0 -71 -51 -120q-50 -50 -121 -50t-120 49q-50 50 -50 121z" />
<glyph unicode="I" d="M170 -387v1708h172v-1536h1536v-172h-1708zM406 446v21h20v-21h-20zM406 786v23h20v-23h-20zM406 1128v21h20v-21h-20zM426 -129v356q0 32 27 49l395 396q17 26 49 26q31 0 47 -22l60 -60v21h20v-21h-20l170 -170v21h20v-21h-20l20 -22l582 582q14 14 32 16.5t33.5 -4 t26 -20.5t10.5 -33v-4l-2 -1090h-1450zM492 446v21h20v-21h-20zM492 786v23h20v-23h-20zM492 1128v21h20v-21h-20zM575 446v21h23v-21h-23zM575 786v23h23v-23h-23zM575 1128v21h23v-21h-23zM662 530v23h20v-23h-20zM662 616v21h20v-21h-20zM662 702v21h20v-21h-20zM662 786 v23h20v-23h-20zM662 872v21h20v-21h-20zM662 958v21h20v-21h-20zM662 1042v23h20v-23h-20zM662 1128v21h20v-21h-20zM662 1214v21h20v-21h-20zM748 786v23h20v-23h-20zM748 1128v21h20v-21h-20zM831 786v23h23v-23h-23zM831 1128v21h23v-21h-23zM918 786v23h20v-23h-20z M918 1128v21h20v-21h-20zM1004 702v21h20v-21h-20zM1004 786v23h20v-23h-20zM1004 872v21h20v-21h-20zM1004 958v21h20v-21h-20zM1004 1042v23h20v-23h-20zM1004 1128v21h20v-21h-20zM1004 1214v21h20v-21h-20zM1087 786v23h23v-23h-23zM1087 1128v21h23v-21h-23zM1174 786 v23h20v-23h-20zM1174 1128v21h20v-21h-20zM1260 786v23h20v-23h-20zM1260 1128v21h20v-21h-20zM1343 616v21h23v-21h-23zM1343 702v21h23v-21h-23zM1343 786v23h23v-23h-23zM1343 872v21h23v-21h-23zM1343 958v21h23v-21h-23zM1343 1042v23h23v-23h-23zM1343 1128v21h23v-21 h-23zM1343 1214v21h23v-21h-23zM1430 786v23h20v-23h-20zM1430 1128v21h20v-21h-20zM1516 786v23h20v-23h-20zM1516 1128v21h20v-21h-20zM1599 1128v21h23v-21h-23zM1686 958v21h20v-21h-20zM1686 1042v23h20v-23h-20zM1686 1128v21h20v-21h-20zM1686 1214v21h20v-21h-20z M1772 1128v21h20v-21h-20z" />
<glyph unicode="J" d="M57 430q0 25 2 50t6 46t9.5 36.5t11.5 23.5q0 4 7 11t70.5 21t178.5 19q57 38 106.5 67.5t92.5 51.5q86 44 113 48l28 5h428q3 0 10 -1.5t33 -12.5q29 -13 59 -30q33 -20 87.5 -62t117.5 -99q56 -8 106.5 -16.5t96.5 -18.5q92 -19 150.5 -37t102.5 -37q33 -14 54 -26 t34.5 -22.5t21 -18.5t11.5 -13l3 -7q6 -23 6 -66q0 -34 -6 -80q-21 -23 -50.5 -36t-48.5 -14l-20 -1h-27q2 12 3 21.5t1 17.5q0 70 -50 120t-119 50q-70 0 -120 -50t-50 -120q0 -28 4 -39h-822q2 12 3 21.5t1 17.5q0 70 -50 120t-120 50t-122 -50q-50 -50 -50 -120 q0 -5 1.5 -14.5t3.5 -24.5h-23q-56 0 -150 35q-93 35 -106 51q-29 29 -29 133zM403 231q0 54 37 91q38 38 92 38q52 0 90 -38q37 -37 37 -91q0 -52 -38 -90q-37 -37 -89 -37q-55 0 -92 37t-37 90zM1556 231q0 53 38 91t92 38q53 0 89 -38q37 -37 37 -91q0 -53 -37 -90 t-89 -37q-55 0 -92 37q-38 38 -38 90z" />
<glyph unicode="K" d="M86 250v4v10q0 81 60 140q64 63 153 63h299q88 0 153 -63q60 -59 60 -140v-10v-4h-43v4v8q0 65 -48 112q-52 50 -122 50h-299q-71 0 -123 -50q-47 -47 -47 -110v-10v-4h-43zM86 553v512h1364v-512h-1364zM170 254q0 53 37 90t92 37q52 0 90 -38q37 -37 37 -89 q0 -55 -37 -92t-90 -37q-55 0 -92 37t-37 92zM469 254q0 53 37 90t92 37q51 0 89 -38t38 -89q0 -55 -37 -92t-90 -37q-55 0 -92 37t-37 92zM1024 254q0 88 62 150q63 63 151 63h299v342h29t36 1t34 1h22q88 0 142.5 -4.5t66.5 -8.5l12 -5q25 -18 54 -128q30 -110 30 -173 v-281h-86v43v8q0 65 -48 112q-52 50 -122 50q-30 0 -56.5 -9.5t-48 -26t-37 -40t-22.5 -51.5h-139q-15 57 -60.5 92t-105.5 35q-70 0 -122 -50q-48 -47 -48 -112v-8h-43zM1110 254q0 52 37 89q38 38 90 38q54 0 91 -37q38 -38 38 -90q0 -54 -38 -92q-37 -37 -91 -37 q-53 0 -90 37t-37 92zM1579 254q0 52 37 89q38 38 90 38q54 0 91 -37q38 -38 38 -90q0 -54 -38 -92q-37 -37 -91 -37q-53 0 -90 37t-37 92z" />
<glyph unicode="L" d="M86 82q0 160 112 272q113 113 271 113q159 0 272 -113t113 -272q0 -157 -113 -270t-272 -113q-158 0 -271 113q-112 112 -112 270zM170 82q0 -123 88 -210t211 -87q124 0 211 87q88 87 88 210q0 124 -87 211q-87 88 -212 88q-123 0 -211 -88q-88 -87 -88 -211zM594 651 q0 68 57 125l310 309q17 17 40 17q29 0 43 -17q8 -11 24 -37.5t42 -68.5l117 -191h223q28 0 47 -18.5t19 -46.5t-19 -47t-47 -19h-250q-41 0 -57 25l-119 121l-137 -137l211 -115q57 -31 57 -78q0 -7 -2 -16.5t-2 -10.5l-41 -405q0 -18 -7 -33.5t-18.5 -27t-27 -18.5 t-33.5 -7t-33.5 7t-27 18.5t-18.5 27t-7 33.5l43 362l-307 132q-38 17 -59 48t-21 68zM1126 1133q0 60 43 102q43 43 105 43q59 0 102 -43t43 -102q0 -60 -43 -103q-42 -43 -102 -43q-62 0 -105 43t-43 103zM1194 82q0 160 112 272q113 113 273 113q157 0 270 -113t113 -272 q0 -157 -113 -270t-270 -113q-160 0 -273 113q-112 112 -112 270zM1280 82q0 -123 87 -210q88 -87 212 -87q122 0 211 87q88 87 88 210q0 124 -88 211q-88 88 -211 88q-125 0 -212 -88q-87 -87 -87 -211z" />
<glyph unicode="M" d="M86 -88q0 124 87 211q87 88 210 88q125 0 212 -88q87 -87 87 -211q0 -123 -88 -211q-87 -88 -211 -88q-123 0 -210 88t-87 211zM123 401q0 21 18 33q70 60 144 60q22 0 45.5 -6.5t52.5 -18.5q26 -11 129 -54.5t285 -121.5v-203l-428 287q-39 26 -88 26t-93 -26 q-16 -10 -28 -10q-15 0 -26 10t-11 24zM170 -88q0 -88 62 -150q63 -63 151 -63q89 0 152 63q63 61 63 150t-63 151q-64 62 -152 62q-87 0 -151 -62q-62 -62 -62 -151zM449 561q0 61 53 129q20 26 53 69t79 104q47 61 73.5 95.5t33.5 42.5q15 21 50 21q21 0 34 -10l76 -99 l139 -176l222 27l2 2h8q27 0 46 -19t19 -47q0 -25 -16.5 -43.5t-42.5 -21.5l-248 -31h-8q-35 0 -51 19l-133 106l-119 -154l223 -88q34 -14 50 -34t16 -45q0 -4 -1 -11t-1 -8h2v-420q0 -34 -22.5 -59t-57.5 -25q-32 0 -56.5 22t-27.5 54v365l-322 133q-73 31 -73 102z M786 1155q0 4 1 12.5t1 12.5q11 70 62 114q52 45 121 45q5 0 13.5 -1t12.5 -1q66 -9 109 -58q45 -49 49 -112q-5 2 -31 10t-73 21q-6 2 -17 2q-20 0 -36.5 -12.5t-22.5 -32.5q0 -3 -1 -7.5t-1 -6.5q0 -20 12 -35t35 -27l46 -24l67 -35q-17 -47 -35 -62l-297 129 q-15 37 -15 68zM1061 -70v476l299 77l72 -166zM1229 576.5q0 17.5 13.5 32t39.5 14.5h137q12 0 25.5 -12t17.5 -21q2 -12 156 -334l-90 -27l-139 301h-107q-26 0 -39.5 14.5t-13.5 32zM1366 -88q0 124 87 211q87 88 210 88q125 0 212 -88q87 -87 87 -211q0 -123 -88 -211 q-87 -88 -211 -88q-123 0 -210 88t-87 211zM1450 -88q0 -88 62 -150q63 -63 151 -63q89 0 152 63q63 61 63 150t-63 151q-64 62 -152 62q-87 0 -151 -62q-62 -62 -62 -151zM1530 537q57 28 127 28q44 0 88 -18q13 -8 25 -17.5t18 -14.5l6 -5q16 -10 16 -31 q0 -14 -10.5 -24.5t-23.5 -10.5q-9 0 -19 7q-28 20 -71 20q-58 0 -99 -37q-20 30 -33 55.5t-24 47.5z" />
<glyph unicode="N" d="M510 -215v1364l1182 -682z" />
<glyph unicode="O" d="M342 -215v1364h512v-1364h-512zM1194 -215v1364h512v-1364h-512z" />
<glyph unicode="P" d="M342 -215v1364h1364v-1364h-1364z" />
<glyph unicode="Q" d="M170 -215v1364l1180 -682zM1536 -215v1364h342v-1364h-342z" />
<glyph unicode="R" d="M170 -215v1364h342v-1364h-342zM698 467l1180 682v-1364z" />
<glyph unicode="S" d="M170 -43v1024l885 -512zM1057 -43v1024l885 -512z" />
<glyph unicode="T" d="M106 469l885 512v-1024zM993 469l885 512v-1024z" />
<glyph unicode="U" d="M170 297v297q0 160 112 272q113 113 273 113h553v215l588 -342l-588 -342v213h-553q-54 0 -92 -38q-37 -37 -37 -91v-148zM352 82l588 342v-213h553q54 0 91 37q38 38 38 90v149l256 150v-299q0 -158 -113 -271q-112 -112 -272 -112h-553v-215z" />
<glyph unicode="V" d="M170 -258q0 53 39 92l938 938q-37 73 -37 164q0 87 32.5 158t85.5 121.5t122 78t143 27.5q96 0 168.5 -38t120.5 -93l-426 -115l-51 -188l139 -139l426 114l-6 -24q-16 -65 -52 -117.5t-85.5 -89.5t-109.5 -57.5t-124 -20.5q-91 0 -164 37l-938 -938q-39 -39 -92 -39 q-51 0 -90 39t-39 90z" />
<glyph unicode="W" d="M145 137l213 176q-16 77 -16 154t16 154l-213 176q56 148 154 266l258 -98q113 107 268 155l45 273q76 12 154 12q77 0 154 -12l45 -273q155 -48 268 -155l258 98q98 -118 154 -266l-213 -176q16 -77 16 -154t-16 -154l213 -176q-56 -148 -154 -266l-258 98 q-113 -107 -268 -155l-45 -273q-77 -12 -154 -12q-78 0 -154 12l-45 273q-155 48 -268 155l-258 -98q-98 118 -154 266zM682 467q0 -142 100 -242t242 -100q141 0 241 100q101 101 101 242q0 140 -101 241t-241 101q-141 0 -242 -101q-100 -100 -100 -241z" />
<glyph unicode="X" d="M115 698q27 111 94 234l262 -66q32 45 67.5 82t75.5 66l-69 260q107 64 231 98l139 -231q23 4 50.5 6t58.5 2q46 0 96 -6l135 233q111 -27 234 -94l-66 -262q45 -32 82 -67.5t66 -75.5l260 69q64 -107 98 -231l-231 -140q4 -23 6 -50t2 -58q0 -47 -6 -96l233 -135 q-27 -111 -94 -234l-262 66q-32 -45 -67.5 -82t-75.5 -66l69 -260q-107 -64 -231 -98l-139 231q-23 -4 -50.5 -6t-58.5 -2q-47 0 -96 6l-135 -233q-111 27 -234 94l66 262q-45 32 -82 67.5t-66 75.5l-260 -69q-64 107 -98 231l231 139q-4 23 -6 50.5t-2 58.5q0 46 6 96z M682 467q0 -63 24.5 -124.5t69.5 -110t108 -78t140 -29.5q63 0 124.5 24.5t110 69.5t78 108t29.5 140q0 63 -24.5 124.5t-69.5 110t-108 78t-140 29.5q-63 0 -124.5 -24.5t-110 -69.5t-78 -108t-29.5 -140z" />
<glyph unicode="Y" d="M147 659l158 70v16q0 61 14 115l-137 105q28 72 78 141l162 -64q40 44 102 82l-22 172q41 16 79 27t74 16l70 -157h16q59 0 115 -15l105 138q72 -29 141 -78l-64 -162q48 -45 82 -102l172 22q16 -38 26.5 -77t16.5 -77l-157 -71v-15q0 -59 -15 -114l137 -105 q-28 -74 -77 -141l-162 64q-45 -48 -103 -82l23 -172q-38 -16 -77 -26.5t-77 -16.5l-71 157h-15q-59 0 -114 15l-105 -138q-72 28 -141 78l63 162q-44 40 -82 102l-172 -22q-16 41 -27 79t-16 74zM522 745q0 -97 66 -158q67 -61 153 -61q95 0 157 66q63 67 63 153 q0 21 -11 60q-20 71 -79 115q-59 45 -130 45q-20 0 -59 -11q-70 -19 -116 -79q-44 -59 -44 -130zM1010 -96l106 88q-4 27 -6 46.5t-2 31.5q0 14 2 33t6 44l-106 89q27 74 77 133l130 -50q61 58 135 78l22 138q37 6 76 6q40 0 78 -6l22 -138q76 -21 136 -78l129 50 q50 -59 77 -133l-108 -89q10 -40 10 -77q0 -35 -10 -78l108 -88q-26 -70 -77 -133l-129 49q-62 -54 -136 -78l-22 -137q-38 -6 -78 -6q-39 0 -76 6l-22 137q-74 22 -135 78l-130 -49q-51 63 -77 133zM1280 70q0 -70 50 -120t120 -50q72 0 122 50t50 120q0 71 -50 121 q-50 51 -122 51q-71 0 -120 -51q-50 -50 -50 -121z" />
<glyph unicode="Z" d="M291 608q0 18 8 29l256 342q-18 18 -18 41q0 11 4.5 22.5t8.5 17.5l5 5q69 69 109.5 118.5t60.5 71.5v193q38 -26 62.5 -50.5t38.5 -46.5t20 -38.5t7 -25.5l1 -9q99 0 187 -32q88 -31 151.5 -83t115.5 -122t85.5 -145.5t56.5 -154.5t33 -146.5t10 -127.5v-469h-213 q-26 0 -42 -4.5t-25.5 -10.5t-13.5 -12.5t-5 -10.5v-5q0 -12 10 -22q8 -8 25.5 -14.5t50.5 -6.5q15 0 24 -12.5t9 -30.5q0 -16 -9.5 -29.5t-23.5 -13.5q-26 0 -42 -4t-25.5 -10t-13.5 -12.5t-5 -10.5v-4q0 -12 10 -22q8 -8 25.5 -14.5t50.5 -6.5h170q5 0 14 -0.5t31 -7.5 q14 -4 29 -13t27 -23.5t20 -35.5t8 -49v-170h-1110v170q0 38 13.5 62.5t32 39t38 20t31.5 6.5l14 1h170q26 0 42 4.5t25.5 10.5t13.5 12.5t5 10.5v5q0 11 -10 20q-8 8 -26 14.5t-50 6.5q-14 0 -23.5 13.5t-9.5 29.5q0 18 9 30.5t24 12.5q25 0 41.5 4.5t26 10.5t13.5 12.5 t5 10.5v5q0 11 -10 21q-8 8 -26 15t-50 7h-170q-37 0 -60 32q-11 16 -17 32t-7 32l-2 31q0 2 0.5 5.5t1.5 8.5t7.5 16.5t17 27t25.5 34t34 37.5l297 299q29 29 29 59q0 17 -7 34t-15 26l-7 8q-15 18 -43 18q-23 0 -41 -18l-256 -213q-6 -7 -15 -11t-14 -4l-6 -1q-12 0 -23 4 q-9 3 -17.5 10.5t-10.5 21.5q-16 -22 -41 -22q-18 0 -39.5 11.5t-34.5 22.5l-12 11q-51 48 -51 98z" />
<glyph unicode="[" d="M169 467q0 138 44 269q32 97 84.5 182t121.5 154t153.5 121.5t181.5 84.5q131 45 269.5 44t269.5 -44q96 -32 181 -84.5t154.5 -122t122 -154.5t84.5 -181q43 -131 44 -269.5t-44 -269.5q-32 -97 -84.5 -181.5t-121.5 -153.5t-154 -121.5t-182 -84.5q-131 -44 -269 -44 t-270 44q-96 32 -180.5 84.5t-154 122t-122 154t-84.5 180.5q-44 132 -44 270zM342 467q0 -138 54 -266q109 -253 362 -362q128 -54 266 -54t265 54q254 108 363 362q54 128 54 266t-54 265q-108 255 -363 363q-127 54 -265 54t-266 -54q-254 -109 -362 -363 q-54 -127 -54 -265zM426 446v41h172v-41h-172zM907 436l299 516l148 -84l-213 -370l221 -127l-86 -150zM1004 41h40v-172h-40v172zM1004 893v172h40v-172h-40zM1493 446v41h170v-41h-170z" />
<glyph unicode="\" d="M170 680q0 173 86 321q85 148 233 234q149 86 322 86q172 0 320 -86q147 -85 233 -234q86 -148 86 -321q0 -171 -82 -313l461 -461q49 -49 49 -121q0 -35 -11.5 -65t-37.5 -56t-56 -37.5t-65 -11.5q-72 0 -121 49l-461 461q-146 -84 -315 -84q-174 0 -322 85 q-147 86 -233 233q-86 149 -86 321zM342 680q-2 -95 35.5 -180t102 -149t150 -102t181.5 -38q63 0 122 17t111.5 48.5t95.5 74.5t74.5 95.5t48.5 111.5t17 122q0 96 -38 181.5t-102 150t-149.5 101.5t-179.5 36q-98 -2 -180.5 -35t-151.5 -102t-102 -151.5t-35 -180.5z" />
<glyph unicode="]" d="M170 -215q0 70 51 121l459 461q-82 148 -82 313q0 175 85 321q85 148 233 234q149 86 321 86q173 0 321 -86t234 -234t86 -321q0 -172 -86 -321q-86 -148 -234 -233q-146 -85 -321 -85q-167 0 -315 84l-459 -461q-26 -26 -56 -37.5t-65 -11.5q-72 0 -121 49 q-51 54 -51 121zM768 680q0 -63 17 -122t48.5 -111.5t74.5 -95.5t95.5 -74.5t111.5 -48.5t122 -17q95 0 180.5 38t150 102t102.5 149t38 180q0 96 -38 181t-102.5 149t-150 101.5t-180.5 37.5t-180 -37.5t-149 -101.5t-102 -149t-38 -181z" />
<glyph unicode="^" d="M170 680q0 173 86 321q85 148 233 234q149 86 322 86q172 0 320 -86q147 -85 233 -234q86 -148 86 -321q0 -171 -82 -313l461 -461q49 -49 49 -121q0 -35 -11.5 -65t-37.5 -56t-56 -37.5t-65 -11.5q-72 0 -121 49l-461 461q-146 -84 -315 -84q-174 0 -322 85 q-147 86 -233 233q-86 149 -86 321zM342 680q-2 -95 35.5 -180t102 -149t150 -102t181.5 -38q63 0 122 17t111.5 48.5t95.5 74.5t74.5 95.5t48.5 111.5t17 122q0 96 -38 181.5t-102 150t-149.5 101.5t-179.5 36q-98 -2 -180.5 -35t-151.5 -102t-102 -151.5t-35 -180.5z M512 594v172h213v213h170v-213h215v-172h-215v-213h-170v213h-213z" />
<glyph unicode="_" d="M170 680q0 173 86 321q85 148 233 234q149 86 322 86q172 0 320 -86q147 -85 233 -234q86 -148 86 -321q0 -171 -82 -313l461 -461q49 -49 49 -121q0 -35 -11.5 -65t-37.5 -56t-56 -37.5t-65 -11.5q-72 0 -121 49l-461 461q-146 -84 -315 -84q-174 0 -322 85 q-147 86 -233 233q-86 149 -86 321zM342 680q-2 -95 35.5 -180t102 -149t150 -102t181.5 -38q63 0 122 17t111.5 48.5t95.5 74.5t74.5 95.5t48.5 111.5t17 122q0 96 -38 181.5t-102 150t-149.5 101.5t-179.5 36q-98 -2 -180.5 -35t-151.5 -102t-102 -151.5t-35 -180.5z M512 594v172h598v-172h-598z" />
<glyph unicode="`" d="M166 -391l483 1448l434 434h240l-426 -428q-40 10 -70 10q-64 0 -100 -33l2 -2l-6 -2q-34 -96 -69 -196.5t-71 -208.5q-35 -107 -62 -189t-46 -142l-37 -118q19 0 42 -8.5t49 -24.5q54 -33 99 -78q23 -23 42.5 -47.5t35.5 -50.5q33 -54 33 -92q202 68 414.5 139 t439.5 146l2 6l2 -2q33 36 33 100q0 30 -10 70l428 426v-240l-434 -434zM1116 963l529 528h241l-631 -631q-80 67 -139 103zM1417 698l631 631v-242l-528 -528q-36 59 -103 139z" />
<glyph unicode="a" d="M172 -385l242 723l669 672l62 -60l-656 -657l-36 37l-2 -2q-17 -48 -35 -98.5t-36 -104.5t-31 -95t-23 -70l-19 -58q40 0 96 -56t56 -96l426 144l2 2l-37 36l657 656l60 -62l-672 -669zM569 213l656 657l61 -61l-657 -655zM711 72l655 657l61 -61l-657 -656zM1145 1071 l59 59l484 -483l-60 -59zM1266 1192l59 59q39 39 84.5 57.5t97.5 18.5q105 0 181 -76l120 -121q76 -76 76 -180q0 -52 -18.5 -97.5t-57.5 -84.5l-59 -59z" />
<glyph unicode="b" d="M166 100q0 81 28.5 148t84.5 123l725 725l59 -62l-725 -723q-44 -44 -65 -97t-21 -114q0 -125 86 -211q88 -88 213 -88q123 0 211 88l964 965q64 64 64 152q0 83 -65 148t-150 65q-86 0 -150 -64l-663 -663q-39 -39 -39 -91t39 -89q40 -38 90 -38q53 0 90 37l574 574 l59 -62l-571 -573q-32 -32 -70 -47t-82 -15t-82 15t-70 47t-46.5 69.5t-14.5 81.5q0 91 61 152l664 664q44 44 97 65t114 21q127 0 213 -86q44 -44 65 -97t21 -114q0 -125 -86 -211l-967 -967q-113 -113 -270 -113q-158 0 -272 113q-113 113 -113 272z" />
<glyph unicode="c" d="M31 812q0 99 37 193.5t112 168.5q73 72 166 110.5t195 38.5q100 0 194.5 -38t167.5 -111q80 -81 121 -193q40 112 121 193q73 73 167.5 111t194.5 38q102 0 195 -38.5t166 -110.5q50 -49 83.5 -108.5t50 -123.5t16.5 -131t-16.5 -131t-50 -123t-83.5 -108 q-93 -91 -241.5 -241.5t-360.5 -361.5l-242 -241l-844 844q-74 74 -111.5 169t-37.5 194z" />
<glyph unicode="d" d="M32 814.5q0 98.5 37 193t111 168.5t168.5 111t193.5 37q1 0 3 1q98 0 190 -37q94 -37 168 -112q39 -41 70 -88t51 -105q19 55 49.5 103t71.5 90q49 50 108 83.5t123 50t131 16.5t131 -16.5t123.5 -50t108.5 -83.5q72 -73 110.5 -167t38.5 -194t-37.5 -194t-111.5 -168 l-604 -605l-242 -241l-844 846q-74 74 -111 168.5t-37 193zM115 815q0 -178 125 -303l784 -784q56 57 135 136.5t184 183.5l256 255l209 209q125 125 125 303q0 176 -125 301t-301 125q-181 0 -303 -125q-29 -29 -52.5 -67.5t-43.5 -85.5l-84 -199l-82 194q-20 48 -44 88 t-54 70q-122 125 -303 125q-176 0 -301 -125t-125 -301z" />
<glyph unicode="e" d="M117 676l657 49l250 610l250 -610l657 -49l-504 -426l156 -639l-559 346l-559 -346l156 639z" />
<glyph unicode="f" d="M117 676l657 49l250 610l250 -610l657 -49l-504 -426l156 -639l-559 346l-559 -346l156 639zM317 610l392 -331l-121 -498l436 270l436 -270l-121 498l392 331l-512 39l-195 475l-195 -475z" />
<glyph unicode="g" d="M168 6v1090q0 23 15 38t38 15h1604q22 0 37.5 -15t15.5 -38v-1090q0 -23 -15.5 -38t-37.5 -15h-269v-322l-319 322h-1016q-23 0 -38 15t-15 38z" />
<glyph unicode="h" d="M170 -186v624q0 12 9 20.5t20 8.5h227v-299q0 -60 33 -94q30 -33 85 -33h3q43 0 175.5 0.5t358.5 1.5v-229q0 -12 -8 -20.5t-20 -8.5h-541l-170 -172v172h-143q-11 0 -20 8.5t-9 20.5zM512 168v938q0 19 12 31t31 12h1280q18 0 30.5 -12.5t12.5 -30.5v-938q0 -17 -13 -30 t-30 -13h-213v-256l-256 256h-811q-18 0 -30.5 12.5t-12.5 30.5z" />
<glyph unicode="i" d="M682 -45h172v512h-172v170h512v-682h172v-170h-684v170zM768 1065q0 106 75 181t181 75t181 -75t75 -181t-75 -181t-181 -75t-181 75t-75 181z" />
<glyph unicode="j" d="M307 1126q0 16 6.5 31.5t17.5 27.5t26.5 19.5t33.5 7.5q30 0 53 -17t31 -46l397 -1485q2 -8 2 -20q0 -36 -23.5 -61t-62.5 -25q-28 0 -50.5 17t-30.5 46l-398 1483q-2 10 -2 22zM662 1110q34 -18 79 -18q70 0 190 47q117 47 224 104q54 29 109 55t115 49q118 48 192 48 q45 0 80 -19q-20 -94 -41.5 -176t-46.5 -153q31 -42 62.5 -83.5t64.5 -83.5t59 -72t43 -50l35 -41q-35 18 -80 18q-72 0 -190 -48q-60 -23 -115 -49t-109 -55q-107 -57 -224 -104q-120 -47 -191 -47q-45 0 -80 19z" />
<glyph unicode="k" d="M170 735v2v498q0 18 7 33.5t18.5 27t27 18.5t33.5 7h500q16 0 28 -12l983 -983h2q13 -13 13 -31t-13 -31h-2l-542 -545q-13 -10 -29 -10q-19 0 -31 12q0 3 -2 3l-983 983q-10 13 -10 28zM342 1064.5q0 -16.5 6 -32t18 -28.5t27.5 -19t32 -6t32.5 6.5t28 18.5 q26 26 26 60.5t-26 59.5q-26 24 -60 24q-1 0 -2 1q-34 0 -58 -25q-12 -12 -18 -27.5t-6 -32z" />
<glyph unicode="l" d="M219 735v2v498q0 35 24.5 60.5t59.5 25.5h498h4q17 0 29 -12l983 -983q12 -12 12 -31t-12 -31l-545 -545q-13 -10 -29 -10q-21 0 -31 15h-2l-981 983q-10 10 -10 28zM274 -342v784l299 -827h-258q-17 0 -29 12t-12 31zM274 571l779 -909l-252 -104q-8 -2 -15 -2 q-27 0 -41 26v2zM389 1064.5q0 -16.5 6 -32t19 -28.5t28.5 -19t32 -6t32 6.5t27.5 18.5q25 26 25 60.5t-25 59.5t-59.5 25t-60.5 -25q-12 -12 -18.5 -27.5t-6.5 -32z" />
<glyph unicode="m" d="M342 41q106 0 181 75t75 181v852q0 90 54 159q55 68 141 91q30 -33 56.5 -74t46.5 -88.5t31 -100.5t11 -110v-971q-39 -14 -84 -14h-512zM870 1405h324q140 0 241 -125t101 -301v-1450l-256 256l-256 -256v1450q0 134 -41 244t-113 182z" />
<glyph unicode="n" d="M0 -387l242 563l397 78l385 -78l59 12l-239 557q-17 41 -25 79.5t-8 76.5q0 160 112 272q113 113 271 113q159 0 272 -113t113 -272q0 -35 -7 -72.5t-24 -76.5l-221 -514l80 16l399 -78l242 -563l-524 102l-500 -102l-500 102zM129 -315l408 86l12 61l80 -80l108 -22 l-172 172l15 71l264 -264l106 -22l-356 356l16 70l414 -414v-27l487 99l50 -11l-60 60l-22 108l190 -190l109 -25l-324 324l-22 108l452 -454l35 -6l-37 96l-432 430l-35 8l-104 -20l-117 -273l-96 230l-74 -15v-16l-18 20l-107 21l125 -125v-86l-231 231l-109 23l340 -340 v-84l-399 399l8 35l-324 -72zM1004 901q0 -78 56 -134t134 -56q79 0 135 56q57 55 57 134t-57 136t-135 57q-79 0 -134 -57q-56 -58 -56 -136zM1559 188l268 -268l-53 137l-105 107z" />
<glyph unicode="o" d="M512 809q0 212 150 362t362 150t362 -150t150 -362q0 -106 -41 -203l-471 -1098l-467 1092q-21 50 -33 101.5t-12 107.5zM768 809q0 -106 75 -181t181 -75t181 75t75 181t-75 181t-181 75t-181 -75t-75 -181z" />
<glyph unicode="p" d="M170 -215v682q0 70 50 120q52 50 122 50h156q-21 -21 -60 -84h-96q-18 0 -33.5 -7t-27 -18.5t-18.5 -27t-7 -33.5v-682q0 -18 7 -33.5t18.5 -27t27 -18.5t33.5 -7h1024q35 0 59.5 25.5t24.5 60.5v115l86 86v-201q0 -71 -50 -121q-50 -51 -120 -51h-1024q-70 0 -121 51 q-51 49 -51 121zM477 41q0 175 67 331q67 157 182 272q113 113 271 181q159 68 332 68v342l598 -598l-598 -596v340q-234 0 -428 -46q-197 -45 -310 -124q-114 -78 -114 -170z" />
<glyph unicode="q" d="M170 467q0 106 75 181t181 75q63 0 116 -27t89 -75l737 317q-1 6 -1.5 16.5t-0.5 24.5q0 106 75 181t181 75t181 -75t75 -181t-75 -181t-181 -75q-60 0 -113.5 26.5t-87.5 71.5l-741 -317q1 -6 1.5 -15t0.5 -22q0 -14 -0.5 -23.5t-1.5 -15.5l739 -317q34 46 87 73t116 27 q106 0 181 -75t75 -181t-75 -181t-181 -75t-181 75t-75 181q0 13 0.5 22t1.5 15l-739 317q-36 -45 -89.5 -71.5t-113.5 -26.5q-106 0 -181 75t-75 181z" />
<glyph unicode="r" d="M86 -215q0 106 75 181t181 75t181 -75t75 -181t-75 -181t-181 -75t-181 75t-75 181zM256 381v342q208 0 397 -81q190 -81 327 -219q138 -137 219 -327q81 -189 81 -397h-342q0 138 -54 266q-54 126 -145 217t-218 145q-126 54 -265 54zM256 1065v340q175 0 343.5 -35 t320.5 -99t289.5 -157.5t252.5 -208.5t208.5 -252.5t157.5 -289.5t99 -320.5t35 -343.5h-340q0 188 -49 363q-49 178 -136.5 326t-215.5 276q-127 127 -276 215q-150 88 -326 137t-363 49z" />
<glyph unicode="s" d="M170 637q0 140 43.5 269.5t121.5 235.5q57 78 132.5 142.5t164 110.5t188 71t204.5 25q140 -1 269.5 -44t235.5 -121q78 -57 142.5 -132.5t110.5 -164t71 -188t25 -204.5q-1 -126 -33.5 -239.5t-99.5 -217.5q-134 -208 -352 -311l18 201v6q135 94 215 241q80 149 80 320 q0 139 -54 265q-54 127 -145 218q-91 90 -218 146q-128 55 -265 55q-140 0 -266 -55q-124 -53 -217 -146q-91 -91 -145 -218q-54 -126 -54 -265q0 -172 79 -320q79 -146 216 -241v-6l16 -201q-216 103 -350 311q-133 206 -133 457zM512 637q0 212 150 362t362 150t362 -150 t150 -362q0 -105 -40 -199t-112 -164q-30 86 -90 154q72 94 72 209q0 140 -101 241t-241 101q-141 0 -242 -101q-100 -100 -100 -241q0 -115 72 -209q-60 -68 -90 -154q-72 70 -112 164t-40 199zM791 150v18q0 87 67 150t166 63q98 0 166 -63q67 -63 67 -150v-18l-63 -621 h-340zM854 637q0 71 50 121q49 51 120 51q70 0 120 -51q50 -50 50 -121t-50 -121q-49 -49 -120 -49t-120 49q-50 50 -50 121z" />
<glyph unicode="t" d="M10 -197q444 23 602 185q-154 6 -248 90q-95 84 -122 209q56 -13 102 -13q28 0 66 7q-135 23 -229 127q-93 103 -93 229q0 12 2 29.5t6 40.5l34 -15l44 -18q17 -8 41.5 -13.5t40.5 -5.5q-168 139 -168 316v8q0 76 14.5 133.5t40.5 95.5q171 -222 412 -331 q23 -10 40.5 -17t31.5 -12q17 -6 44.5 -14t63.5 -19l13 -4q2 0 6 -1t6 -1l63 -12q9 -1 29 -5.5t51 -12.5q32 -8 55 -11.5t37 -3.5q7 0 13 2q-9 40 -9 84q0 117 53 218t148 160q96 60 211 60q160 0 299 -131q156 21 283 121q-43 -157 -181 -256q63 11 120.5 26t109.5 35 q-31 -66 -80 -113t-123 -93v-27q0 -6 -1 -20t-1 -21h2q0 -124 -24.5 -241t-70 -224.5t-111 -203.5t-146.5 -177t-176.5 -145.5t-203 -110t-224.5 -70t-240 -24.5q-163 0 -326 52q-166 52 -307 138z" />
<glyph unicode="u" d="M426 254v938q0 89 62 151q64 62 151 62q88 0 152 -62q63 -62 63 -151v-299h639q89 0 151 -62t62 -151q0 -87 -62 -151q-62 -62 -151 -62h-639v-213q0 -89 61 -151q62 -62 148 -62h430q89 0 151 -63q62 -64 62 -152t-62 -150q-62 -63 -151 -63h-428q-130 0 -248 51 t-204 137t-137 204q-50 120 -50 249z" />
<glyph unicode="v" d="M598 553v256h170v258q0 107 36.5 173t96.5 101q42 25 77 36.5t83 18.5q24 3 42 5t31 3t28 1h32q108 0 256 -31l-47 -272q-5 1 -14 2t-22 3q-26 4 -49.5 6.5t-45.5 2.5q-162 0 -162 -137v-170h293l-19 -256h-274v-940h-342v940h-170z" />
<glyph unicode="w" d="M127 467q0 176 125 301q127 125 303 125t301 -125t125 -301q0 -177 -125 -302q-124 -124 -301 -124q-178 0 -303 124q-125 125 -125 302zM1067 467q0 177 124 301q125 125 302 125q176 0 301 -125t125 -301q0 -177 -125 -302q-124 -124 -301 -124q-178 0 -302 124 t-124 302z" />
<glyph unicode="x" d="M63 842q0 8 3.5 15.5t6.5 10.5l3 4q25 23 121 101.5t264 214.5q80 65 172 65q89 0 157 -63q67 -61 84 -172q32 -206 57 -342.5t43 -207.5q29 -113 54 -155q40 -63 70 -63q7 0 15.5 4t15.5 9q5 4 12 11l11 11t13 13.5t13 14.5q21 23 41 49t38 56q18 31 39.5 71.5 t46.5 92.5q39 79 39 153q0 63 -33 101t-108 38q-44 0 -102 -14q35 124 87 203.5t112 123.5q43 32 79 49t76 27t65.5 12.5t51.5 2.5h32q75 0 133 -21t97.5 -60.5t60.5 -96.5t21 -129q0 -64 -17.5 -138.5t-50.5 -160.5q-30 -78 -71.5 -155t-87.5 -148t-92.5 -134t-86.5 -112 q-27 -34 -56.5 -66t-60.5 -64q-32 -32 -53.5 -54t-34.5 -35t-27.5 -26.5t-31.5 -29.5q-221 -204 -377 -204q-189 0 -284 299q-28 87 -49.5 159t-38.5 132q-16 60 -28.5 110.5t-21.5 89.5l-15 65t-9 36q-21 78 -44 135t-41 84q-31 45 -51 57t-28 10h-2q-4 0 -13 -3 q-8 -2 -41 -23.5t-75 -59.5q-17 -8 -30 -5t-18 10l-3 3q-9 14 -21 33t-26 45q-5 8 -5 21z" />
<glyph unicode="y" d="M342 467q0 69 14 136t39.5 129t62.5 117t82 100q93 93 217 146q126 54 265 54v215l588 -342l-588 -340v211q-175 0 -300 -125q-124 -124 -124 -301q0 -71 27 -150l-224 -129q-59 129 -59 279zM438 -88l588 340v-211q175 0 299 124q125 125 125 302q0 69 -27 149l224 129 q59 -129 59 -278q0 -69 -14 -136t-39.5 -129t-62.5 -117t-82 -100q-93 -93 -217 -146q-126 -54 -265 -54v-215z" />
<glyph unicode="z" d="M340 465h2v2v19q0 126 50 246q54 127 145 218t218 145t267 54v215l588 -342l-588 -340v211q-175 0 -300 -125q-124 -124 -124 -301q0 -71 27 -150h-2q46 -124 157 -204q100 -73 221 -73h10.5t10.5 1h4q14 0 24 0.5t17 1.5q9 1 18 2.5t17 1.5q34 9 69 21q123 45 201 154 t78 245q0 69 -27 149l224 129q59 -129 59 -278q0 -171 -78 -319q-78 -147 -214 -241q-138 -95 -302 -116q-47 -6 -90 -6q-139 0 -265 54q-127 53 -218 144t-145 217t-54 265z" />
<glyph unicode="{" d="M170 211v512h598v598h512v-598h598v-512h-598v-598h-512v598h-598z" />
<glyph unicode="|" d="M170 211v512h1708v-512h-1708z" />
<glyph unicode="}" d="M170 211v512h1708v-512h-1708zM725 -174q0 124 87 211q88 88 212 88q123 0 211 -88t88 -211t-88 -210q-87 -87 -211 -87t-212 87q-87 87 -87 210zM725 1106q0 124 87 211q88 88 212 88q123 0 211 -88t88 -211t-88 -210q-87 -87 -211 -87t-212 87q-87 87 -87 210z" />
<glyph unicode="~" d="M240 45l422 422l-422 422l362 362l422 -422l422 422l362 -362l-422 -422l422 -422l-362 -362l-422 421l-422 -421z" />
<glyph unicode="&#xa1;" horiz-adv-x="344" />
<glyph unicode="&#xa2;" horiz-adv-x="729" />
<glyph unicode="&#xa3;" d="M256 -45h170v256h-170v342h170v145v-8q0 172 86 318q88 147 234 229q147 84 321 84q172 0 320 -86q147 -85 233 -234q86 -148 86 -321h-340q0 124 -88 211q-88 88 -211 88q-124 0 -213 -86q-86 -85 -86 -209v-131h383v-342h-383v-256h938v-342h-1450v342z" />
<glyph unicode="&#xa5;" horiz-adv-x="917" />
<glyph unicode="&#xa6;" horiz-adv-x="331" />
<glyph unicode="&#xa7;" horiz-adv-x="675" />
<glyph unicode="&#xa8;" horiz-adv-x="407" />
<glyph unicode="&#xa9;" horiz-adv-x="991" />
<glyph unicode="&#xaa;" horiz-adv-x="561" />
<glyph unicode="&#xab;" horiz-adv-x="1200" />
<glyph unicode="&#xac;" horiz-adv-x="907" />
<glyph unicode="&#xad;" horiz-adv-x="903" />
<glyph unicode="&#xae;" horiz-adv-x="1001" />
<glyph unicode="&#xaf;" horiz-adv-x="503" />
<glyph unicode="&#xb0;" d="M170 385q1 63 18.5 119t54.5 107q73 100 191 139q22 120 117 198q94 78 219 78q87 0 162 -40t121 -109q82 65 186 65q124 0 211 -88q88 -88 88 -213q0 -7 -1 -18t-3 -27q54 -6 102 -31.5t83 -65.5t55.5 -91t19.5 -107q-1 -63 -22 -115.5t-66 -97.5q-87 -88 -211 -88h-940 q-78 0 -148.5 31t-123.5 84t-83.5 123t-29.5 147zM672 164q0 -31 29.5 -48.5t74.5 -13.5q41 4 73 27t32 47v350l299 49v-280q-24 19 -55.5 18.5t-59 -12.5t-47 -33.5t-19.5 -44.5q0 -15 8.5 -27.5t22.5 -20.5t33.5 -12t40.5 -1t40 10.5t33.5 18t22.5 22t8 23.5h2v434 l-360 -60v-374q-26 16 -57 15.5t-58 -12.5t-45 -32t-18 -43z" />
<glyph unicode="&#xb1;" horiz-adv-x="978" />
<glyph unicode="&#xb2;" horiz-adv-x="755" />
<glyph unicode="&#xb3;" horiz-adv-x="526" />
<glyph unicode="&#xb4;" horiz-adv-x="399" />
<glyph unicode="&#xb5;" horiz-adv-x="727" />
<glyph unicode="&#xb6;" horiz-adv-x="1101" />
<glyph unicode="&#xb7;" horiz-adv-x="376" />
<glyph unicode="&#xb8;" horiz-adv-x="569" />
<glyph unicode="&#xb9;" horiz-adv-x="411" />
<glyph unicode="&#xba;" horiz-adv-x="497" />
<glyph unicode="&#xbb;" horiz-adv-x="1220" />
<glyph unicode="&#xbc;" d="M167 -84l156 156v68h78v-68h1246v856h-931v78h931q15 0 29 -6.5t25 -17.5t17.5 -25t6.5 -29v-856l156 -156q0 -32 -21 -55t-57 -23h-1558q-34 0 -56 21t-22 57zM171 231v880v1q0 19 7 35.5t19.5 29t29 19.5t35.5 7q1 0 1.5 -0.5t1.5 -0.5h356q1 0 2 0.5t2 0.5 q38 0 64.5 -26.5t26.5 -64.5v-1v-880q0 -36 -25 -62.5t-61 -28.5h-5h-364h-5q-36 2 -60.5 28.5t-24.5 62.5zM216 322h454v698h-454v-698zM390 231q0 -22 15.5 -37.5t37.5 -15.5q23 0 38 15.5t15 37.5t-15 37.5t-38 15.5q-22 0 -37.5 -15.5t-15.5 -37.5zM393 1112q0 -9 9 -9 h83q9 0 9 9t-9 9h-83q-9 0 -9 -9zM807 -74q-4 -5 2.5 -7.5t20.5 -2.5h389q13 0 20 2.5t2 7.5l-50 49q-6 6 -28 6h-278q-22 0 -28 -6z" />
<glyph unicode="&#xbd;" horiz-adv-x="1468" />
<glyph unicode="&#xbe;" horiz-adv-x="1492" />
<glyph unicode="&#xbf;" horiz-adv-x="757" />
<glyph unicode="&#xc0;" horiz-adv-x="1306" />
<glyph unicode="&#xc1;" horiz-adv-x="1306" />
<glyph unicode="&#xc2;" horiz-adv-x="1308" />
<glyph unicode="&#xc3;" horiz-adv-x="1306" />
<glyph unicode="&#xc4;" d="M170 553q0 35 25.5 59.5t60.5 24.5h172q0 -66 48 -118q49 -52 122 -52q45 0 84.5 22.5t62.5 61.5l50 86h458l50 -86q23 -39 62.5 -61.5t84.5 -22.5q73 0 121 52q49 52 49 118h172q35 0 60.5 -24.5t25.5 -59.5q0 -18 -7 -33.5t-18.5 -27t-27 -18.5t-33.5 -7l-170 -682 q-8 -32 -22.5 -49.5t-28.5 -25.5q-17 -10 -35 -11h-1024q-18 1 -35 11q-14 8 -28.5 25.5t-22.5 49.5l-170 682q-18 0 -33.5 7t-27 18.5t-18.5 27t-7 33.5zM512 637q0 13 3.5 23.5t8.5 19.5l256 444q12 21 30 32t44 11q18 0 33.5 -7.5t26.5 -19.5t17.5 -27.5t6.5 -31.5 q0 -26 -10 -43l-256 -444q-24 -41 -74 -41q-38 0 -62 25t-24 59zM598 -88q0 -17 12 -30t29 -13q18 0 30.5 12.5t12.5 30.5v342q0 18 -12.5 30.5t-30.5 12.5q-17 0 -29 -13t-12 -30v-342zM854 -88q0 -17 12 -30t29 -13q18 0 30.5 12.5t12.5 30.5v342q0 18 -12.5 30.5 t-30.5 12.5q-17 0 -29 -13t-12 -30v-342zM1110 -88q0 -17 12 -30t29 -13q18 0 30.5 12.5t12.5 30.5v342q0 18 -12.5 30.5t-30.5 12.5q-17 0 -29 -13t-12 -30v-342zM1110 1081q0 17 6.5 32.5t17.5 27.5t26.5 19t33.5 7q26 0 44 -11t30 -32l256 -444q5 -9 8.5 -19.5t3.5 -23.5 q0 -34 -24 -59t-62 -25q-50 0 -74 41l-256 444q-10 17 -10 43zM1366 -88q0 -17 12 -30t29 -13q18 0 30.5 12.5t12.5 30.5v342q0 18 -12.5 30.5t-30.5 12.5q-17 0 -29 -13t-12 -30v-342z" />
<glyph unicode="&#xc5;" d="M170 1235q0 18 7 33.5t18.5 27t27 18.5t33.5 7h150q60 0 86 -86l194 -1194h1020q18 0 33.5 -7t27 -18.5t18.5 -27t7 -33.5t-7 -33.5t-18.5 -27t-27 -18.5t-33.5 -7h-1088q-2 0 -13.5 1.5t-26 9.5t-28 25.5t-18.5 49.5l-190 1194h-86q-18 0 -33.5 7t-27 18.5t-18.5 27 t-7 33.5zM596 1065l1282 -86v-512l-1157 -170zM662 -344q0 54 36 92q37 37 90 37q55 0 92 -37q38 -38 38 -92q0 -52 -38 -90q-37 -37 -92 -37q-52 0 -89 37t-37 90zM1450 -344q0 55 37 92t92 37q53 0 90 -37t37 -92q0 -52 -37 -89q-38 -38 -90 -38q-55 0 -92 37t-37 90z" />
<glyph unicode="&#xc6;" horiz-adv-x="1796" />
<glyph unicode="&#xc7;" d="M86 381l938 940l938 -940h-170l-768 768l-768 -768h-170zM426 381l598 598l598 -598v-768h-385v768h-426v-768h-385v768zM1366 1149v172h256v-428z" />
<glyph unicode="&#xc8;" horiz-adv-x="897" />
<glyph unicode="&#xc9;" d="M170 -45v854l335 -251l425 -318q38 -29 94 -29t94 29l423 316l337 253v-854l-428 342l401 -401q-24 -27 -59 -27h-1536q-35 0 -59 27l401 401zM170 893q0 18 7 33.5t18.5 27t27 18.5t33.5 7h1536q18 0 33.5 -7t27 -18.5t18.5 -27t7 -33.5l-336 -251l-424 -318 q-36 -27 -94 -27t-94 27l-423 316z" />
<glyph unicode="&#xca;" horiz-adv-x="897" />
<glyph unicode="&#xcb;" horiz-adv-x="894" />
<glyph unicode="&#xcc;" horiz-adv-x="577" />
<glyph unicode="&#xcd;" horiz-adv-x="460" />
<glyph unicode="&#xce;" horiz-adv-x="567" />
<glyph unicode="&#xcf;" horiz-adv-x="546" />
<glyph unicode="&#xd0;" horiz-adv-x="1214" />
<glyph unicode="&#xd1;" d="M170 -215v852l335 -251l425 -318q36 -27 94 -27t94 27l423 316l337 253v-852l-428 340l401 -401q-25 -25 -59 -25h-1536q-34 0 -59 25l401 401zM170 723l335 251l425 318q42 31 94 31t94 -31l241 -181l278 -208q74 -56 134 -100.5t107 -79.5q-49 -36 -220 -164t-464 -348 l-76 -57q-42 -31 -94 -31t-94 31l-306 229l-239 180z" />
<glyph unicode="&#xd2;" horiz-adv-x="987" />
<glyph unicode="&#xd3;" horiz-adv-x="987" />
<glyph unicode="&#xd4;" horiz-adv-x="987" />
<glyph unicode="&#xd5;" horiz-adv-x="987" />
<glyph unicode="&#xd6;" d="M170 -215v852l335 -251l425 -318q36 -27 94 -27t94 27l423 316l337 253v-852l-428 340l401 -401q-25 -25 -59 -25h-1536q-34 0 -59 25l401 401zM170 723l335 251l425 318q42 31 94 31t94 -31l423 -317l337 -252l-215 -160l-41 -33v107q0 18 -7 33.5t-18.5 27t-27 18.5 t-33.5 7h-1024q-18 0 -33.5 -7t-27 -18.5t-18.5 -27t-7 -33.5v-107q-25 20 -61 47l-84 63z" />
<glyph unicode="&#xd7;" horiz-adv-x="808" />
<glyph unicode="&#xd8;" horiz-adv-x="1015" />
<glyph unicode="&#xd9;" horiz-adv-x="913" />
<glyph unicode="&#xda;" horiz-adv-x="913" />
<glyph unicode="&#xdb;" horiz-adv-x="913" />
<glyph unicode="&#xdc;" d="M256 -387l63 442q9 65 59 111q51 45 114 45h1064q63 0 113 -45q51 -45 60 -111l63 -442h-1536zM682 979q0 141 100 241q101 101 242 101q140 0 241 -101t101 -241q0 -23 -3.5 -44.5t-8.5 -41.5l-80 -315h-2q-20 -86 -89 -142q-68 -55 -159 -55t-159 55q-69 56 -89 142h-2 l-80 315q-5 20 -8.5 41.5t-3.5 44.5z" />
<glyph unicode="&#xdd;" d="M85 -92l43 298q3 22 13.5 41t26.5 33t35 22t40 8h265q-20 -15 -34.5 -37.5t-18.5 -49.5l-45 -315h-210h-115zM372 827q0 48 18 89.5t49.5 73t73 49.5t89.5 18q38 0 71.5 -12t62.5 -32q-26 -55 -26 -116q0 -37 11 -75h-1l61 -219l-12 -47q-7 -28 -22.5 -52t-37.5 -41.5 t-49.5 -27.5t-57.5 -10t-57.5 10t-49.5 27.5t-37.5 41.5t-22.5 52h-1l-54 213q-8 29 -8 58zM477 -92l45 315q3 23 14.5 43.5t28 35.5t37 23.5t42.5 8.5h760q22 0 43 -8.5t37.5 -23.5t28 -35.5t14.5 -43.5l45 -315h-122h-851h-122zM781 881q0 50 19 94.5t52 77.5t77.5 52 t94.5 19q51 0 95.5 -19t77.5 -52t52 -77.5t19 -94.5q0 -32 -9 -62h1l-58 -225h-1q-7 -30 -23.5 -55t-40 -44t-52.5 -29.5t-61 -10.5t-61 10.5t-52 29.5t-40 44t-24 55l-58 225q-4 15 -6 30t-2 32zM1264 603l61 219q10 34 10 75q0 60 -25 116q28 20 61.5 32t71.5 12 q48 0 89.5 -18t73 -49.5t49.5 -73t18 -89.5q0 -29 -8 -58l-54 -213q-7 -28 -23 -52t-38 -41.5t-49.5 -27.5t-57.5 -10t-57.5 10t-49.5 27.5t-37.5 41.5t-22.5 52zM1537 310h265q21 0 40.5 -8t35 -22t26.5 -33t14 -41l42 -298h-115h-209l-45 315q-4 27 -18.5 49.5t-35.5 37.5 z" />
<glyph unicode="&#xde;" horiz-adv-x="817" />
<glyph unicode="&#xdf;" horiz-adv-x="1132" />
<glyph unicode="&#xe0;" d="M170 -45h172v-170h1364v170h172v-342h-1708v342zM426 637h385v684h426v-684h385l-598 -596z" />
<glyph unicode="&#xe1;" d="M86 -301l53 377q8 56 50 93q44 38 96 38h336q-60 -40 -70 -111l-55 -397h-410zM449 860q0 120 84 204q84 85 204 85q94 0 170 -53q-33 -74 -33 -148q0 -49 13 -94l78 -279l-15 -57h-2q-16 -73 -76 -120q-58 -46 -135 -46q-76 0 -134 46q-57 45 -77 120l-69 268 q-4 16 -6 34t-2 40zM580 -301l57 397q9 59 53 100q44 40 101 40h960q55 0 101 -41q48 -41 55 -99l55 -397h-1382zM965 928q0 128 89 217q90 90 218 90q127 0 217 -90t90 -217q0 -38 -10 -78l-74 -285q-20 -77 -81 -126q-62 -50 -142 -50t-142 50q-62 49 -81 126h-2l-72 285 q-10 40 -10 78z" />
<glyph unicode="&#xe2;" d="M170 -45h172v-170h1364v170h172v-342h-1708v342zM426 723l598 598l598 -598h-385v-682h-426v682h-385z" />
<glyph unicode="&#xe3;" d="M256 -45l512 512l-512 512l256 256l512 -512l512 512l256 -256l-512 -512l512 -512l-256 -256l-512 512l-512 -512z" />
<glyph unicode="&#xe4;" d="M170 905q0 81 31.5 157t91.5 136t136 91.5t157 31.5q78 0 155 -31t138 -92l145 -145q60 -60 90.5 -136t30.5 -157q0 -55 -15 -107l-399 400q-61 61 -145 61q-87 0 -148 -61t-61 -148q0 -84 61 -145l400 -400q-51 -14 -107 -14q-79 0 -156 30.5t-137 90.5l-145 145 q-60 60 -91.5 136t-31.5 157zM627 760q0 21 8 40t22.5 33.5t33.5 22.5t40 8q44 0 74 -30l586 -586q30 -30 30 -74q0 -21 -8 -40t-22.5 -33.5t-33.5 -22.5t-40 -8q-44 0 -74 30l-586 586q-30 30 -30 74zM903 174q0 54 15 107q152 -153 251.5 -252.5l147.5 -147.5 q61 -61 145 -61q87 0 148 61t61 148q0 84 -61 145l-400 399q52 15 107 15q172 0 293 -121l145 -145q123 -123 123 -293t-123 -293q-60 -60 -136.5 -91.5t-156.5 -31.5q-78 0 -154.5 30.5t-138.5 92.5l-145 145q-60 60 -90.5 136t-30.5 157z" />
<glyph unicode="&#xe5;" d="M86 297l256 256l340 -342l1024 1024l256 -256l-1280 -1280l-258.5 258.5t-337.5 339.5z" />
<glyph unicode="&#xe6;" horiz-adv-x="1204" />
<glyph unicode="&#xe7;" d="M256 1149q0 18 7 33.5t18.5 27t27 18.5t33.5 7h426q0 70 50 120t120 50h172q70 0 120 -50t50 -120h426q18 0 33.5 -7t27 -18.5t18.5 -27t7 -33.5q0 -35 -25.5 -59.5t-60.5 -24.5h-1364q-35 0 -60.5 24.5t-25.5 59.5zM426 -301v1280h1196v-1280q0 -71 -51 -120 q-50 -50 -121 -50h-852q-70 0 -122 50q-50 50 -50 120zM598 -258q0 -19 12 -31t29 -12q19 0 31 12t12 31v1024q0 18 -12.5 30.5t-30.5 12.5q-17 0 -29 -13t-12 -30v-1024zM854 -258q0 -19 12 -31t29 -12q19 0 31 12t12 31v1024q0 18 -12.5 30.5t-30.5 12.5q-17 0 -29 -13 t-12 -30v-1024zM854 1235h340q0 35 -24.5 60.5t-59.5 25.5h-172q-35 0 -59.5 -25.5t-24.5 -60.5zM1110 -258q0 -19 12 -31t29 -12q19 0 31 12t12 31v1024q0 18 -12.5 30.5t-30.5 12.5q-17 0 -29 -13t-12 -30v-1024zM1366 -258q0 -19 12 -31t29 -12q19 0 31 12t12 31v1024 q0 18 -12.5 30.5t-30.5 12.5q-17 0 -29 -13t-12 -30v-1024z" />
<glyph unicode="&#xe8;" d="M469 -387v854h170v256q0 160 112 271q112 112 273 112q159 0 271 -112t112 -271v-256h172v-854h-1110zM811 467h426v256q0 89 -62 151t-151 62t-151 -62t-62 -151v-256zM938 125q0 -46 43 -74v-182h86v182q43 28 43 74q0 18 -7 33.5t-18.5 27t-27 18.5t-33.5 7t-33.5 -7 t-27 -18.5t-18.5 -27t-7 -33.5z" />
<glyph unicode="&#xe9;" d="M426 -170v1364q0 70 51 121t121 51h512v-256q0 -106 75 -181t181 -75h256v-1024q0 -70 -51 -121t-121 -51h-852q-70 0 -121 51t-51 121zM639 131q0 -18 12.5 -30.5t30.5 -12.5h684q17 0 29 12t12 31q0 17 -12 30t-29 13h-684q-17 0 -30 -13t-13 -30zM639 383 q0 -17 13 -29t30 -12h684q17 0 29 12t12 29q0 19 -12 31t-29 12h-684q-18 0 -30.5 -12.5t-12.5 -30.5zM639 639q0 -17 13 -29t30 -12h684q17 0 29 12t12 29q0 19 -12 31t-29 12h-684q-18 0 -30.5 -12.5t-12.5 -30.5zM639 895q0 -17 13 -29t30 -12h299q19 0 31 12t12 29 q0 19 -12 31t-31 12h-299q-18 0 -30.5 -12.5t-12.5 -30.5zM1194 1110v256l428 -428h-256q-70 0 -121 51t-51 121z" />
<glyph unicode="&#xea;" d="M342 -387v854h768v342q0 158 112 270q113 113 271 113q159 0 272 -113t113 -270v-256l-172 -86v342q0 88 -62 150q-62 63 -151 63q-88 0 -151 -63q-62 -62 -62 -150v-342h170v-854h-1108zM811 125q0 -49 43 -74v-182h84v182q43 25 43 74q0 36 -25 61t-61 25 q-35 0 -59.5 -25.5t-24.5 -60.5z" />
<glyph unicode="&#xeb;" d="M170 -215v768h1708v-768q0 -18 -7 -33.5t-18.5 -27t-27 -18.5t-33.5 -7h-1536q-18 0 -33.5 7t-27 18.5t-18.5 27t-7 33.5zM170 637v172q1 5 5 11t13 14l136 120q28 25 59 25h299q33 0 61 -25l136 -120q22 -25 59 -25h854q35 0 60.5 -24.5t25.5 -59.5v-88h-1708z" />
<glyph unicode="&#xec;" d="M170 979q0 16 6.5 32t18.5 28q13 13 29 19.5t32 6.5t31.5 -7t27.5 -20l2 2l615 -426h2q37 -24 90 -24q26 0 50 6.5t46 21.5l611 422l2 -2q24 27 58.5 27t60.5 -26t26 -60.5t-27 -58.5l2 -2l-755 -1006q-24 -43 -74 -43t-74 43l-755 1006l2 2q-14 12 -20.5 27.5t-6.5 31.5 z" />
<glyph unicode="&#xed;" d="M170 -45q0 16 6.5 31.5t20.5 27.5l-2 2l755 1006q24 43 74 43t74 -43l755 -1006l-2 -2q27 -24 27 -58.5t-26 -60.5t-60.5 -26t-58.5 27l-2 -2l-611 421q-23 16 -47 22.5t-49 6.5q-52 0 -90 -25h-2l-615 -425l-2 2q-12 -14 -27.5 -20.5t-31.5 -6.5t-32 6.5t-29 19.5 q-12 12 -18.5 28t-6.5 32z" />
<glyph unicode="&#xee;" d="M426 723l598 598l598 -598h-385v-1110h-426v1110h-385z" />
<glyph unicode="&#xef;" d="M426 211h385v1110h426v-1110h385l-598 -598z" />
<glyph unicode="&#xf0;" horiz-adv-x="1011" />
<glyph unicode="&#xf1;" d="M170 254v426h1110v385l598 -598l-598 -598v385h-1110z" />
<glyph unicode="&#xf2;" d="M426 467l172 51v-102zM602 45l80 164q5 -6 14.5 -17t25.5 -27t27 -25.5t17 -14.5zM602 889l164 -80q-12 -9 -44 -41q-31 -31 -40 -43zM682 467q0 141 100 241q101 101 242 101q140 0 241 -101t101 -241q0 -141 -101 -242q-100 -100 -241 -100q-142 0 -242 100t-100 242z M973 41h102l-51 -172zM973 893l51 172l51 -172h-102zM1282 125q12 9 43 40q32 32 41 44l80 -164zM1282 809l164 80l-80 -164q-5 6 -15 16.5t-26 26.5t-26.5 26t-16.5 15zM1450 416v102l172 -51z" />
<glyph unicode="&#xf3;" d="M170 467l598 598v-385h1110v-426h-1110v-385z" />
<glyph unicode="&#xf4;" d="M170 338q0 127 73 225q73 100 189 139q22 118 117 198q94 79 219 79q88 0 161.5 -41t121.5 -111q82 66 186 66q125 0 212 -88q87 -87 87 -211q0 -7 -1 -18t-3 -27q111 -14 185 -98q75 -84 75 -197q0 -124 -87 -212q-87 -87 -212 -87h-938q-161 0 -273 112t-112 271z" />
<glyph unicode="&#xf5;" d="M170 680q0 127 73 225q73 100 189 139q22 118 117 198q94 79 219 79q88 0 161.5 -41.5t121.5 -110.5q82 66 186 66q125 0 212 -88q87 -87 87 -211q0 -8 -1 -19.5t-3 -25.5q111 -14 185 -98q75 -84 75 -199q0 -123 -88 -210q-87 -87 -211 -87h-938q-161 0 -273 112 t-112 271zM528 -86q0 10 2 20l60 226v2v-2l166 -164v-2q28 -34 28 -80q0 -39 -23 -72.5t-59 -46.5q-7 -4 -12 -4h-2q-6 -2 -12 -2q-8 -2 -21 -2q-50 0 -89 36q-38 35 -38 91zM913 -150l62 226h-2h2q8 -8 26 -27t48 -49l92 -92q26 -32 26 -78q0 -40 -22.5 -73t-59.5 -48 q-5 0 -12 -4q-2 0 -6 -1t-6 -1q-3 0 -10.5 -1t-10.5 -1q-52 0 -89 36q-38 36 -38 91v22zM1296 0q0 10 2 18v2l60 226v2v-2v2v-2l166 -164v-2q28 -38 28 -80q0 -40 -22.5 -73t-59.5 -46q-7 -4 -12 -4l-2 -2h-12q-8 -2 -21 -2q-50 0 -89 36q-38 35 -38 91z" />
<glyph unicode="&#xf6;" d="M170 254q0 127 73 225q73 100 189 139q22 117 118 196q94 79 218 79q88 0 161.5 -40.5t121.5 -109.5q82 66 186 66q124 0 211 -88q88 -88 88 -211q0 -8 -1 -19.5t-3 -25.5q110 -15 185 -100q75 -86 75 -197q0 -123 -88 -211q-87 -88 -211 -88h-938q-160 0 -273 113 q-112 112 -112 272zM1038 1233l162 -80l-84 -84zM1116 874q24 118 117 196q94 79 217 79q141 0 241 -100q101 -99 101 -240q0 -93 -47 -173q-46 -79 -123 -124q-2 158 -114 269q-112 112 -271 112q-64 0 -121 -19zM1409 1235l51 172l51 -172h-8.5t-17.5 1q-10 1 -16.5 1 h-8.5h-8.5t-17.5 -1q-10 -1 -16.5 -1h-8.5zM1718 467q6 5 16.5 15.5l26.5 26.5t26 26.5t15 15.5l80 -164zM1718 1153l164 80l-80 -164q-5 5 -15 15.5t-26 26.5l-26.5 26.5t-16.5 15.5zM1884 760q1 5 1.5 17t0.5 32t-0.5 33t-1.5 18l172 -51z" />
<glyph unicode="&#xf7;" horiz-adv-x="821" />
<glyph unicode="&#xf8;" horiz-adv-x="827" />
<glyph unicode="&#xf9;" d="M115 143l309 179l-293 135l37 78l346 -162l424 245l-424 246l-346 -162l-37 78l293 135l-309 179l43 73l309 -178l-29 322l84 8l35 -381l424 -246v490l-313 221l49 70l264 -187v356h86v-356l264 187l49 -70l-313 -221v-490l424 246l33 381l86 -8l-29 -322l307 178l43 -73 l-307 -179l293 -135l-37 -78l-346 162l-424 -246l424 -245l346 162l37 -78l-293 -135l307 -179l-43 -73l-307 178l29 -322l-86 -8l-33 381l-424 246v-490l313 -221l-49 -70l-264 187v-357h-86v357l-264 -187l-49 70l313 221v490l-424 -246l-35 -381l-84 8l29 322l-309 -178z " />
<glyph unicode="&#xfa;" d="M170 680q0 127 73 225q73 100 189 139q22 118 117 198q94 79 219 79q88 0 161.5 -41.5t121.5 -110.5q82 66 186 66q125 0 212 -88q87 -87 87 -211q0 -8 -1 -19.5t-3 -25.5q111 -14 185 -98q75 -84 75 -199q0 -123 -88 -210q-87 -87 -211 -87h-938q-161 0 -273 112 t-112 271zM854 211h170l86 -256l170 68l86 -494l-172 340l-170 -84z" />
<glyph unicode="&#xfb;" d="M170 680q0 127 73 225q73 100 189 139q22 118 117 198q94 79 219 79q88 0 161.5 -41.5t121.5 -110.5q82 66 186 66q125 0 212 -88q87 -87 87 -211q0 -8 -1 -19.5t-3 -25.5q111 -14 185 -98q75 -84 75 -199q0 -123 -88 -210q-87 -87 -211 -87h-938q-161 0 -273 112 t-112 271zM600 -74l10 15l64 -37l-6 67l18 2l6 -79l88 -52v103l-65 45l10 14l55 -37v74h19v-74l55 37l10 -14l-65 -45v-103l88 52l6 79l18 -2l-6 -67l64 37l10 -15l-66 -37l62 -28l-8 -17l-72 35l-88 -51l88 -51l72 33l8 -17l-62 -29l66 -36l-10 -15l-64 37l6 -67h-18l-6 77 l-88 52v-103l65 -45l-10 -14l-55 39v-74h-19v74l-55 -39l-10 14l65 45v103l-88 -52l-6 -77h-18l6 67l-64 -37l-10 15l64 36l-60 29l6 17l74 -33l88 51l-88 51l-74 -35l-6 17l60 28zM1069 96l10 17l64 -37l-6 65l18 2l6 -80l88 -49v101l-65 47l10 14l55 -39v74h19v-74l55 39 l10 -14l-65 -47v-101l88 49l6 80l18 -2l-6 -65l64 37l10 -17l-64 -37l60 -28l-6 -17l-74 35l-88 -51l88 -51l74 35l6 -17l-60 -28l64 -37l-10 -17l-64 37l6 -65l-18 -2l-6 79l-88 50v-101l65 -47l-10 -14l-55 39v-74h-19v74l-55 -39l-10 14l65 47v101l-88 -50l-6 -79l-18 2 l6 65l-64 -37l-10 17l66 37l-62 28l8 17l72 -35l88 51l-88 51l-72 -35l-8 17l62 28z" />
<glyph unicode="&#xfc;" d="M170 383q0 126 73 226t189 139q23 119 117 197q94 79 219 79q88 0 161.5 -41t121.5 -111q82 66 186 66q125 0 212 -87t87 -212q0 -7 -1 -18t-3 -27q111 -14 185 -98q75 -84 75 -197q0 -125 -87 -212t-212 -87h-938q-161 0 -273 112t-112 271zM684 299l299 -299l299 299 h-192v340h-213v-340h-193z" />
<glyph unicode="&#xfd;" horiz-adv-x="925" />
<glyph unicode="&#xfe;" horiz-adv-x="817" />
<glyph unicode="&#xff;" d="M172.5 487.5q1.5 11.5 3.5 16.5q2 10 3 14q7 15 20.5 23.5t30.5 13.5q10 2 22.5 -1.5t17.5 -6.5q3 -2 4.5 -5t6.5 -5q-1 30 1.5 49t17.5 34q2 2 3 4t3 4h3q11 7 20 10t26 3q3 -1 6.5 -0.5t6.5 0.5l5 -4h6l3 -3q2 0 4 -0.5t4 -0.5l7 -7l7.5 -5t6.5 -6q10 -14 13 -39 t-7 -43q-1 -1 -1.5 -1t-1.5 -1q-1 -2 -1 -3t-1 -3q-2 -2 -3 -2.5t-3 -2.5l-9.5 -9.5t-12.5 -7.5h-5v-2q-6 -2 -17.5 -3t-18.5 1v2h-7q-6 2 -10 7t-9 9v-41q-2 -3 -3 -12t-3 -14q-3 -6 -8 -10.5t-10 -9.5q-2 -4 -3 -5q-13 -9 -29 -11.5t-31 0.5t-28 11t-20 19v3q-1 0 -1 1 t-0.5 1t-0.5 1q-1 1 -2 3q-1 3 -1 5.5t-1 4.5l-3 5q-2 8 -0.5 19.5zM211 469q2 -4 5 -7.5t4 -8.5q5 -1 8 -3.5t7 -4.5h20q2 2 3.5 2t3.5 2v1h3q4 3 6.5 8t6.5 8q1 16 -0.5 31.5t-15.5 19.5q-4 4 -15.5 5t-16.5 -4q-11 -2 -17.5 -18.5t-1.5 -30.5zM317 569q1 -4 2 -6v-8h1 q2 -6 4 -10q1 -2 7 -6.5t8 -5.5h5q5 -2 12 -2t10 3q8 2 13 9t7 16t1 18.5t-6 17.5q-3 4 -8.5 6t-9.5 6h-22l-2 -1h-3q-2 -4 -6 -6t-6 -5v-4l-3 -3q-1 -2 -2 -3v-8h-2q-1 -4 0 -8zM513.5 462.5q0.5 11.5 0.5 20.5q0 24 -0.5 49.5t1.5 47.5q3 2 6 5t6 5q5 0 9.5 -0.5t9.5 -1.5 q2 -3 4.5 -5.5t4.5 -7.5v-46h57v26.5t2 24.5q3 2 5.5 5t5.5 5q9 0 19 -2q2 -3 5 -5.5t4 -7.5v-38q0 -22 0.5 -46t-1.5 -44q-2 -2 -4 -3t-4 -3t-7.5 -4t-10.5 0l-3 4h-3l-2 2q-1 0 -1 0.5t-1 0.5t-1 1q-5 8 -4 25.5t1 28.5h-57q0 -14 -0.5 -28.5t-2.5 -25.5q-7 -4 -11.5 -7 t-15.5 3h-3q-1 0 -3 2l-2 2q-4 6 -3.5 17.5zM663 523q1 13 5 21q6 14 18 25.5t26 17.5h6q5 2 14.5 3.5t17.5 -0.5v-2h8v-1q5 -2 8.5 -2.5t7.5 -2.5q9 -6 17.5 -16.5t12.5 -21.5q1 -3 1 -6.5t1 -6.5q1 -2 2.5 -9t0.5 -10h-2q0 -2 -0.5 -4t-0.5 -4q-17 -7 -47 -6t-53 1 q0 -8 4 -14.5t10 -8.5q4 -5 11 -6t14.5 -0.5t14.5 2.5t11 5l4.5 4.5t4.5 3.5q11 4 16.5 -3t6.5 -16q-2 -2 -1 -2.5t-1 -2.5q-2 -1 -2.5 -1.5t-2.5 -1.5q-2 -2 -3 -4t-3 -4q-2 0 -3 -0.5t-3 -0.5q-2 -2 -2 -4h-5l-3 -3q-2 0 -4.5 -0.5t-5.5 -0.5v-2q-2 -1 -8 -1.5t-12.5 -1 t-12.5 -0.5t-9 1q-40 12 -54 45q-1 5 -1.5 9.5t-1.5 9.5q-3 9 -2 22zM706 529h63q-1 8 -4 12t-5 9q-4 1 -6.5 3t-4.5 3q-4 2 -11.5 2t-11.5 -2q-3 -1 -5.5 -3.5t-6.5 -3.5q-2 -5 -4 -9.5t-4 -10.5zM811 513q-1 10 1 16q5 17 13 30t22 21q2 2 5 2t6 1l3 4h7v1h8q11 3 23 1.5 t22.5 -6t19 -10.5t12.5 -12q1 -2 1 -3t1 -3q1 -1 1.5 -1t1.5 -1q2 -6 4 -12.5t4 -12.5v-22q0 -8 0.5 -18.5t0 -20.5t-3 -17t-8.5 -9q-4 -4 -8 -3.5t-10 1.5q-2 3 -3 3.5t-3 4.5q-3 2 -3 10h-3q-2 -7 -10 -11.5t-18.5 -6.5t-21.5 -1.5t-19 3.5l-3 3l-9 3q-8 5 -16 15t-11 18 q-2 5 -1.5 9t-1.5 9t-3 15zM850.5 514q-0.5 -9 2.5 -18h2l3 -9q2 -2 8 -7t8 -6h5q2 -1 9 -2t11 0q15 5 24 23.5t0 38.5q-9 21 -41 21q-2 -2 -3.5 -2t-2.5 -1q-6 -2 -12 -7.5t-9.5 -13.5t-4 -17zM977 501.5q-2 12.5 2 24.5v8q4 13 11 24.5t17 18.5q2 1 3.5 1t3.5 1 q0 1 0.5 1.5t0.5 1.5q6 3 14.5 4.5t18 1.5t18 -1.5t13.5 -4.5q0 -1 0.5 -1.5t0.5 -1.5q2 -1 2.5 -1t2.5 -1q3 -2 3 -4t5 -4q0 2 0.5 4.5t0.5 5.5q4 2 10 8q9 0 19 -2q2 -3 4 -5.5t4 -5.5v-41v-37q-7 -23 -16.5 -35t-31.5 -20q-5 -2 -20.5 -5t-25.5 0q-14 5 -25 11h-3 q-7 4 -14 12.5t-11.5 19t-6.5 23zM1018 522q-5 -20 4 -33.5t23 -17.5q9 -3 17 0t13 5q3 5 8 9t7 10q2 5 2 14t-2 14q-6 16 -13.5 23.5t-29.5 6.5q-2 -2 -3 -1t-4 0v-2q-5 -2 -9 -3.5t-6 -5.5v-4q-1 -1 -2.5 -2t-2.5 -2q-1 -3 -1 -6t-1 -5zM1093 618q2 2 2 4t1 4q2 1 6 4t5 4 q4 0 7.5 0.5t5.5 -1.5q5 -2 7 -5.5t5 -6.5q2 -20 -11 -23q-3 -3 -12 -3q-7 6 -11.5 7.5t-4.5 15.5zM1143.5 467q0.5 5 1.5 10q4 2 7 5q16 0 22.5 -5t18.5 -9q4 -2 13.5 -1.5t11.5 2.5q8 2 8 14q-2 2 -2.5 3t-2.5 2h-3v2q-9 1 -20 5q-16 5 -28 11t-20 20l-3 3q-2 3 -3 13 t1 14h2q1 4 1 6.5t2 5.5q1 0 1.5 0.5t1.5 0.5v3q3 4 7 6t9 4q17 9 41.5 8t39.5 -11q2 -4 3 -5h3q1 -2 1 -2.5t1 -2.5q1 0 1.5 -0.5t1.5 -0.5v-15q-2 -2 -1.5 -1.5t-0.5 -1.5q-1 0 -2 -0.5t-2 -0.5q-4 -3 -9 -3t-10 2t-10 4.5t-8 3.5q-4 2 -14 2t-13 -2v-1q-2 -1 -3 -1t-3 -1 q-1 -3 -1.5 -5t-0.5 -6q6 -3 11 -8q5 -1 8.5 -1.5t7.5 -1.5q13 -5 24.5 -9t20.5 -13q1 -1 2 -1.5t2 -1.5v-3q0 -4 4 -4v-4h1v-7h2q2 -5 0 -10.5t-3 -8.5v-5q-5 -11 -16.5 -17t-25 -8.5t-28.5 -0.5t-27 7q-7 3 -11.5 5t-7.5 8q-4 4 -3.5 9zM1266 508q-1 12 3 23v6 q5 14 15.5 27.5t24.5 18.5q4 2 11.5 3t10.5 4q21 0 35.5 -3t26.5 -12q3 -2 4.5 -6t4.5 -6v-13l-3 -3l-3 -3q-3 -3 -8.5 -3.5t-10.5 1.5v2h-3q-3 3 -4 5q-4 2 -16 5.5t-20 0.5q-13 -5 -22 -19t-3 -32q0 -3 0.5 -5.5t0.5 -5.5q1 -2 6 -8.5t7 -7.5h3v-1q2 -2 3 -2t3 -2 q8 0 15.5 -0.5t14.5 2.5q2 1 3 2.5t2 2.5q5 3 10 5t12 3q3 -2 5.5 -3t4.5 -4q3 -3 3 -16q-3 -3 -5 -7t-6 -7q-6 -4 -14 -7.5t-16 -5.5t-21.5 0t-18.5 4q-2 0 -4.5 0.5t-4.5 0.5v2q-2 1 -5 1.5t-5 1.5v2h-3q-1 1 -1 1.5t-1 1.5h-3q-7 5 -13 13.5t-10 19.5t-5 23zM1403 525 q2 13 7.5 23.5t13 18.5t15.5 13q2 2 5 2t6 1l3 4h6v1q7 2 18.5 2t18.5 -2q5 -2 8.5 -1.5t8.5 -1.5q18 -8 28.5 -22t16.5 -35v-59v-11.5t-2 -10.5q-2 -1 -2.5 -1.5t-2.5 -1.5q-6 -6 -11 -5.5t-14 2.5q-2 4 -4 6.5t-3 9.5h-3q-2 -7 -9.5 -11.5t-18 -7t-21.5 -2t-19 4.5 q-31 13 -43 49v8q-4 14 -2 27zM1443 516.5q0 -12.5 5 -24t14 -16.5q5 -3 17 -4t17 4q14 3 20.5 22t-1.5 36q-11 21 -42 21q-1 -2 -2.5 -2t-3.5 -1q-12 -3 -18 -13t-6 -22.5zM1569.5 498.5q-0.5 15.5 2.5 26.5v9h1v7h2v4h2q1 4 3 10h1v3q4 2 5 3q2 4 5 8t6 6q9 6 21 10 t25.5 4.5t26 -2t22.5 -8.5q20 -12 30 -41.5t-3 -58.5l-3 -3v-4q-1 0 -1.5 -0.5t-1.5 -0.5q-1 -2 -1 -3.5t-1 -3.5q-3 -3 -11 -9q-1 -2 -1.5 -2.5t-1.5 -2.5h-3q-2 -1 -3 -3t-3 -3q-3 -2 -9 -3.5t-13.5 -2.5t-15 -1.5t-12.5 0.5v2q-4 2 -8 2.5t-7 2.5t-3.5 3.5t-4.5 2.5v3 l-2 2l-2 2h-1q-2 -8 -4.5 -10.5t-6.5 -7.5q-5 0 -9.5 -1t-8.5 3q-5 1 -8 8q-3 3 -3 8.5v11.5q0 14 -0.5 29.5zM1570 417q4 3 5 6t6 5q4 2 5 3q3 0 6.5 -0.5t6.5 -0.5q4 -6 7.5 -9t3.5 -14q-3 -3 -3 -8q-6 -4 -10 -8q-9 0 -15.5 1.5t-8.5 8.5q-3 3 -3 16zM1611.5 522.5 q-1.5 -10.5 0.5 -21.5t7 -18q3 -4 15.5 -9t22.5 -2q5 2 9 5t9 5q1 3 2 3.5t3 2.5q2 3 1.5 6t1.5 7h1q5 14 -1.5 28.5t-12.5 19.5q-2 0 -3 0.5t-3 0.5l-3 3q-5 2 -14.5 2t-12.5 -3q-10 -2 -15.5 -10.5t-7 -19zM1729 512.5q-1 9.5 1 15.5h2v8l3 5v4q4 9 12 18.5t19 16t24 9.5 t28 -1q3 0 6 -0.5t6 -0.5q22 -10 33.5 -29t11.5 -51q-4 -2 -5.5 -4t-7.5 -2q-3 -2 -11 -2h-13h-65q1 -13 7 -17t12 -11q8 -1 17 -2t17 2q1 1 3 2l3 3h3q1 1 1 1.5t1 1.5h3q1 1 1.5 2t1.5 2h5v2q8 2 12.5 -0.5t6.5 -7.5q4 -4 2.5 -8t-2.5 -9q-3 -2 -4.5 -4t-3.5 -4 q-7 -5 -16.5 -8.5t-18.5 -6.5q-8 -2 -22 0t-19 4q-10 2 -14 3q-2 2 -2 3q-2 1 -3 1t-3 1q-10 6 -17.5 17.5t-11.5 23.5v8q-2 5 -3 14.5zM1773 529h64v2q-3 3 -4 7t-3 7q-2 4 -6.5 6t-7.5 5q-6 1 -11.5 1.5t-10.5 -1.5v-1q-6 -2 -10 -3q-3 -6 -6.5 -10.5t-4.5 -12.5z" />
<glyph unicode="&#x152;" horiz-adv-x="1579" />
<glyph unicode="&#x153;" horiz-adv-x="1265" />
<glyph unicode="&#x178;" horiz-adv-x="727" />
<glyph unicode="&#x2c6;" horiz-adv-x="495" />
<glyph unicode="&#x2dc;" horiz-adv-x="446" />
<glyph unicode="&#x2000;" horiz-adv-x="821" />
<glyph unicode="&#x2001;" horiz-adv-x="1642" />
<glyph unicode="&#x2002;" horiz-adv-x="821" />
<glyph unicode="&#x2003;" horiz-adv-x="1642" />
<glyph unicode="&#x2004;" horiz-adv-x="547" />
<glyph unicode="&#x2005;" horiz-adv-x="410" />
<glyph unicode="&#x2006;" horiz-adv-x="273" />
<glyph unicode="&#x2007;" horiz-adv-x="273" />
<glyph unicode="&#x2008;" horiz-adv-x="205" />
<glyph unicode="&#x2009;" horiz-adv-x="328" />
<glyph unicode="&#x200a;" horiz-adv-x="91" />
<glyph unicode="&#x2010;" horiz-adv-x="903" />
<glyph unicode="&#x2011;" horiz-adv-x="903" />
<glyph unicode="&#x2012;" horiz-adv-x="903" />
<glyph unicode="&#x2013;" horiz-adv-x="903" />
<glyph unicode="&#x2014;" horiz-adv-x="1861" />
<glyph unicode="&#x2018;" />
<glyph unicode="&#x2019;" horiz-adv-x="141" />
<glyph unicode="&#x201a;" d="M128 84v820l277 1v-683q0 -9 -0.5 -18.5t-1.5 -18.5q-5 -94 -36.5 -172.5t-80.5 -129.5q-34 8 -63 27t-50 45.5t-33 59.5t-12 69zM350 -123q51 51 84 131t39 177q0 9 0.5 18.5t0.5 18.5v934h1439v-934q0 -72 -22 -134.5t-59.5 -109.5t-88 -74t-107.5 -27h-1286zM605 132 h421v507h-421v-507zM605 775h1185v252h-1185v-252zM1147 540h262v102h-262v-102zM1150 336h259v101h-259v-101zM1151 133h257v104h-257v-104zM1531 540h262v102h-262v-102zM1534 336h259v101h-259v-101zM1535 133h257v104h-257v-104z" />
<glyph unicode="&#x201c;" horiz-adv-x="540" />
<glyph unicode="&#x201d;" horiz-adv-x="540" />
<glyph unicode="&#x201e;" horiz-adv-x="2050" d="M0 516q84 106 173 187.5t177 141.5t172.5 101t159.5 68q176 62 344 71q167 -9 343 -71q75 -27 158.5 -68t171 -101t176 -141.5t171.5 -187.5q-84 -107 -172 -188t-175.5 -141t-171 -101t-158.5 -68q-175 -62 -343 -71q-167 9 -343 71q-75 27 -159.5 68t-172.5 101 t-177 141t-174 188zM645 516q0 -79 30 -148.5t81.5 -121.5t121 -82t148.5 -30t148.5 30t121.5 82t82 121.5t30 148.5t-30 148.5t-82 121.5t-121.5 82t-148.5 30t-148.5 -30t-121 -82t-81.5 -121.5t-30 -148.5zM833 516q0 40 15 75t41.5 61.5t61.5 41.5t75 15t75.5 -15 t61.5 -41.5t41.5 -61.5t15.5 -75t-15.5 -75t-41.5 -61.5t-61.5 -41.5t-75.5 -15t-75 15t-61.5 41.5t-41.5 61.5t-15 75z" />
<glyph unicode="&#x2022;" horiz-adv-x="690" />
<glyph unicode="&#x2026;" horiz-adv-x="1034" />
<glyph unicode="&#x202f;" horiz-adv-x="328" />
<glyph unicode="&#x2039;" d="M426 467q0 50 43 74l1006 755l2 -2q24 27 58.5 27t60.5 -26t26 -60.5t-27 -58.5l2 -2l-421 -611q-16 -23 -22.5 -47t-6.5 -49q0 -53 24 -90v-2l426 -615l-2 -2q27 -24 27 -58.5t-26 -60.5t-60.5 -26t-58.5 27l-2 -2l-1006 755q-43 24 -43 74z" />
<glyph unicode="&#x203a;" d="M512 -301q1 17 6.5 31.5t18.5 27.5v2l424 615v2q26 42 27.5 91t-30.5 95l-421 611v2q-13 13 -18.5 27.5t-6.5 31.5q-1 27 15 48t39 30.5t48.5 6t42.5 -25.5v2l1006 -755q43 -22 43 -74t-43 -74l-1006 -755v2q-17 -22 -42.5 -25.5t-48.5 6t-39 30.5t-15 48z" />
<glyph unicode="&#x205f;" horiz-adv-x="410" />
<glyph unicode="&#x20ac;" d="M256 211v170h90q-2 14 -3 35.5t-1 50.5t1 50.5t3 35.5h-90v170h125q83 263 307 430q223 168 506 168q87 0 170 -17t160 -49t146 -78.5t128 -105.5l-242 -242q-70 70 -163.5 110t-198.5 40q-139 0 -257 -70q-117 -68 -185 -186h442v-170h-504q-4 -29 -6 -50.5t-2 -35.5 t2 -35.5t6 -50.5h504v-170h-442q68 -117 185 -187q118 -69 257 -69q105 0 198.5 39.5t163.5 109.5l242 -241q-59 -59 -128 -105.5t-146 -78.5t-160 -49t-170 -17q-283 0 -506 168q-224 167 -307 430h-125z" />
<glyph unicode="&#x2122;" horiz-adv-x="1402" />
<glyph unicode="&#xe000;" horiz-adv-x="1280" d="M0 0v1280h1280v-1280h-1280z" />
<glyph unicode="&#xfb01;" d="M4 399h35v-88q0 -53 65 -53q28 0 39 4v47q-4 -4 -22 -4q-27 0 -27 33v61h49v43h-49v56h-55v-56h-35v-43zM4 733q0 49 35 84t84 35t84 -35t35 -84t-35 -84t-84 -35t-84 35t-35 84zM51 686l25 -24l47 45l47 -48l25 27l-48 45l50 47l-27 27l-47 -47l-47 47l-25 -25l47 -47z M145 352q0 -42 28 -68t73 -26q49 0 76 35l-39 29q-20 -23 -41 -23q-15 0 -26.5 10t-14.5 27h129v16q0 43 -23 70t-61 27q-43 0 -72 -27.5t-29 -69.5zM201 373q2 15 11.5 25t27.5 10q15 0 24.5 -10.5t9.5 -24.5h-73zM256 733q0 49 35 84t84 35t84 -35t35 -84t-35 -84t-84 -35 t-84 35t-35 84zM311 678l8 -10l56 55l55 -55l8 10l-53 55l53 53l-8 11l-55 -54l-53 54l-11 -9l54 -55zM334 262h55v90q0 47 35 47q11 0 17 -4.5t8.5 -12t3 -16t0.5 -16.5v-88h55v100q0 42 -14 64.5t-52 22.5q-20 0 -34 -9.5t-19 -21.5h-2v24h-53v-180zM508 733q0 49 35 84 t84 35q48 0 83 -35t35 -84q0 -50 -35 -85q-34 -34 -83 -34t-84 35t-35 84zM555 686l25 -24l47 45l45 -48l26 27l-47 45l47 47l-24 27l-47 -47l-47 47l-25 -25l45 -47zM567 262h23v31h2q8 -17 27 -26t40 -9q40 0 66.5 25.5t26.5 64.5q0 20 -7 37.5t-20 31t-30 21.5t-36 8 q-51 0 -67 -34h-2v86h-23v-236zM588 348q0 15 5.5 29t15.5 25t22.5 17.5t27.5 6.5q31 0 50.5 -23.5t19.5 -54.5q0 -30 -19 -49.5t-51 -19.5q-29 0 -50 20t-21 49zM739 442l72 -178l-16 -41q-6 -14 -12.5 -22t-16.5 -8q-3 0 -21 6l-2 -23q11 -4 23 -4q34 0 49 39l90 231h-24 l-58 -149l-57 149h-27zM758 733q0 49 35 84t84 35q48 0 83 -35t35 -84q0 -50 -35 -85q-34 -34 -83 -34t-84 35t-35 84zM805 686l24 -24l48 45l47 -48l24 27l-47 45l49 47l-26 27l-47 -47l-48 47l-24 -25l47 -47zM930 399h37v-88q0 -53 65 -53q28 0 39 4v47q-4 -4 -22 -4 q-17 0 -22 8.5t-5 24.5v61h49v43h-49v56h-55v-56h-37v-43zM1057 442l65 -180h58l32 121l39 -121h56l63 180h-57l-33 -112l-35 112h-61l-31 -112l-37 112h-59zM1354 352q0 -42 28.5 -68t71.5 -26q49 0 76 35l-39 29q-20 -23 -41 -23q-15 0 -26.5 10t-14.5 27h129v16 q0 43 -23 70t-61 27q-43 0 -71.5 -27.5t-28.5 -69.5zM1409 373q2 15 11.5 25t27.5 10q15 0 25 -10.5t10 -24.5h-74zM1542 262h55v90q0 47 35 47q11 0 17 -4.5t8.5 -12t3 -16t0.5 -16.5v-88h55v100q0 42 -13.5 64.5t-51.5 22.5q-20 0 -34.5 -9.5t-19.5 -21.5h-2v24h-53v-180z M1716 399h37v-88q0 -53 66 -53q28 0 39 4v47q-4 -4 -23 -4q-17 0 -22 8.5t-5 24.5v61h50v43h-50v56h-55v-56h-37v-43zM1839 442l80 -182q-6 -17 -13 -29t-28 -12q-15 0 -27 6l-8 -45q21 -8 43 -8q18 0 29.5 3.5t20 10.5t14.5 18.5t12 28.5l82 209h-57l-39 -118h-2l-45 118 h-62z" />
<glyph unicode="&#xfb02;" d="M174 -51h53v82h86v-82h144l55 -174h2l47 174h94l52 -174l51 174h88l-98 -277h-86l-58 185l-51 -185h-86l-78 213v-6h-76v-92q0 -26 8 -38.5t33 -12.5q24 0 35 8v-70q-21 -10 -59 -10q-46 0 -74.5 21t-28.5 63v131h-53v70zM174 1153q0 42 16 79.5t43.5 65t64.5 44t79 16.5 q85 0 145 -60t60 -145q0 -86 -60 -144q-61 -59 -145 -59q-85 0 -144 59t-59 144zM178 373v67h55v82h84v-82h76v-67h-76v-92q0 -27 7.5 -39.5t33.5 -12.5t35 9v-72q-26 -8 -59 -8q-46 0 -73.5 20.5t-27.5 63.5v131h-55zM254 1073l43 -43l80 80l80 -80l43 43l-80 80l82 80 l-45 43l-80 -80l-80 82l-43 -43l80 -82zM393 303q0 64 44 103q44 40 110 40q60 0 95.5 -38.5t35.5 -104.5v-27h-199q5 -25 22 -40t42 -15q35 0 61 35l60 -45q-20 -26 -51 -39.5t-66 -13.5q-67 0 -110 39q-44 39 -44 106zM479 334h113q0 22 -15 36.5t-38 14.5 q-29 0 -43.5 -15t-16.5 -36zM604 1153q0 85 60 145t145 60t144 -60q59 -61 59 -145q0 -85 -59 -144t-144 -59q-84 0 -145 59q-60 58 -60 144zM684 164v276h82v-37q10 17 32 30t50 13q60 0 81 -33t21 -96v-153h-86v135q0 12 -0.5 25.5t-5 24t-13.5 17.5t-26 7q-51 0 -51 -72 v-137h-84zM698 1061l17 -17l94 93l94 -95l17 19l-95 92l95 94l-17 17l-94 -93l-94 93l-17 -17l95 -92zM819 -190q0 33 12 60t33 45.5t49 29t60 10.5q60 0 94.5 -39.5t34.5 -105.5v-27h-199q6 -25 23.5 -39t42.5 -14q33 0 59 32l62 -43q-21 -26 -53 -40.5t-64 -14.5 q-66 0 -110 41t-44 105zM903 -158h113q2 20 -13 36t-38 16q-29 0 -44.5 -16t-17.5 -36zM1036 1153q0 42 16 79.5t43.5 65.5t64.5 44t79 16q85 0 145 -60t60 -145q0 -86 -60 -144q-61 -59 -145 -59q-85 0 -144 59t-59 144zM1040 164v360h35v-131h2q14 26 43.5 39.5t61.5 13.5 q59 0 98 -45t39 -106q0 -30 -10 -55t-28.5 -43.5t-43.5 -28.5t-55 -10q-32 0 -61.5 13.5t-43.5 39.5h-2v-47h-35zM1071 295q0 -44 32 -76q32 -31 79 -31q46 0 75 31t29 76q0 46 -30 84q-28 37 -74 37q-45 0 -78 -38t-33 -83zM1108 -51h82v-39h2q8 19 29.5 32t50.5 13 q60 0 81 -34t21 -97v-152h-86v135q0 16 -1 25t-5 22q-6 25 -37 25q-17 0 -27 -5.5t-15.5 -15t-7 -22t-1.5 -26.5v-138h-86v277zM1116 1073l43 -43l80 80l80 -80l43 43l-80 80l82 80l-43 43l-82 -80l-80 82l-43 -43l80 -82zM1303 440h38l91 -229l88 229h36l-139 -356 q-23 -57 -76 -57q-16 0 -34 6l4 33q5 -2 16 -4.5t16 -2.5q29 0 46 45l24 64zM1374 -51h53v82h86v-82h142l69 -182h2l62 182h86l-125 -322q-9 -23 -13.5 -33t-14.5 -24q-13 -20 -32.5 -27t-56.5 -8q-15 -1 -30.5 2t-32.5 8l10 70q21 -8 41 -8q32 0 43 18q3 3 6.5 10t4.5 10 t4.5 12t4.5 13l-94 215v-6h-76v-92q0 -26 8 -38.5t33 -12.5q24 0 35 8v-70q-21 -10 -59 -10q-46 0 -74.5 21t-28.5 63v131h-53v70zM1466 1153q0 85 60 145t145 60t144 -60q59 -61 59 -145q0 -85 -59 -144t-144 -59q-42 0 -79.5 16t-65.5 43.5t-44 64.5t-16 79zM1546 1073 l43 -43l80 80l82 -80l43 43l-80 80l80 80l-43 43l-80 -80l-82 82l-43 -43l82 -82z" />
</font>
</defs>
</svg>
